<?xml version="1.0" encoding="UTF-8" standalone="no"?><!DOCTYPE svg PUBLIC "-//W3C//DTD SVG 1.1//EN" "http://www.w3.org/Graphics/SVG/1.1/DTD/svg11.dtd"><svg width="100%" height="100%" viewBox="0 0 4263 4263" version="1.1" xmlns="http://www.w3.org/2000/svg" xmlns:xlink="http://www.w3.org/1999/xlink" xml:space="preserve" xmlns:serif="http://www.serif.com/" style="fill-rule:evenodd;clip-rule:evenodd;stroke-linecap:square;stroke-miterlimit:2;"><rect id="Green" x="-0" y="-0" width="4259.58" height="4259.63" style="fill:none;"/><g id="Green1" serif:id="Green"><g><g id="F"><path d="M2368.22,1635.67l21.454,-152.654l872.688,-0l-21.454,152.654l-872.688,-0Z" style="fill:#32e600;stroke:#32e600;stroke-width:94.21px;"/><path d="M2311.92,2036.28l778.271,-0l-21.454,152.654l-607.087,0l-82.592,587.675l-171.185,-0l104.047,-740.329Z" style="fill:#32e600;stroke:#32e600;stroke-width:94.21px;"/></g><path d="M1744.96,1618.91c-28.129,82.945 -565.959,1157.7 -565.959,1157.7l-181.773,-0l678.59,-1293.59l184.421,-0l347.634,1293.59l-195.009,-0c-0,-0 -257.742,-1087.7 -267.904,-1157.7Z" style="fill:#32e600;stroke:#32e600;stroke-width:94.21px;"/></g><g><g transform="matrix(112.619,0,0,112.619,3243.33,2753.81)"></g><text x="3157.51px" y="2753.81px" style="font-family:'Poppins-Bold', 'Poppins';font-weight:700;font-size:112.619px;fill:url(#_Linear1);">C</text><circle cx="3199.86" cy="2714.11" r="62.5" style="fill:none;stroke:#32e600;stroke-width:16.67px;stroke-linecap:round;stroke-linejoin:round;stroke-miterlimit:1;"/></g></g><defs><linearGradient id="_Linear1" x1="0" y1="0" x2="1" y2="0" gradientUnits="userSpaceOnUse" gradientTransform="matrix(60.3799,-36.1946,36.1946,60.3799,5840.25,-3863.6)"><stop offset="0" style="stop-color:#32e600;stop-opacity:1"/><stop offset="1" style="stop-color:#32e600;stop-opacity:0"/></linearGradient></defs></svg>