<?xml version="1.0" encoding="UTF-8" standalone="no"?><!DOCTYPE svg PUBLIC "-//W3C//DTD SVG 1.1//EN" "http://www.w3.org/Graphics/SVG/1.1/DTD/svg11.dtd"><svg width="100%" height="100%" viewBox="0 0 4263 4263" version="1.1" xmlns="http://www.w3.org/2000/svg" xmlns:xlink="http://www.w3.org/1999/xlink" xml:space="preserve" xmlns:serif="http://www.serif.com/" style="fill-rule:evenodd;clip-rule:evenodd;stroke-linecap:square;stroke-miterlimit:2;"><rect id="Withe" x="-0" y="0.494" width="4259.58" height="4259.63" style="fill:none;"/><g id="Withe1" serif:id="Withe"><g><g><path d="M1457.29,1237.5c-49.154,144.947 -989.015,2023.09 -989.015,2023.09l-317.649,-0l1185.84,-2260.55l322.276,-0l607.492,2260.55l-340.779,-0c-0,-0 -450.404,-1900.76 -468.164,-2023.09Z" style="fill:#fff;stroke:#fff;stroke-width:94.21px;"/><g id="F"><path d="M2546.44,1266.8l37.491,-266.764l1525.03,-0l-37.491,266.764l-1525.03,-0Z" style="fill:#fff;stroke:#fff;stroke-width:94.21px;"/><path d="M2448.05,1966.86l1360.03,0l-37.491,266.764l-1060.89,-0l-144.33,1026.96l-299.146,-0l181.822,-1293.73Z" style="fill:#fff;stroke:#fff;stroke-width:94.21px;"/></g></g><g><g transform="matrix(196.803,0,0,196.803,4075.71,3220.74)"></g><text x="3925.74px" y="3220.74px" style="font-family:'Poppins-Bold', 'Poppins';font-weight:700;font-size:196.803px;fill:url(#_Linear1);">C</text><circle cx="3999.74" cy="3151.37" r="109.219" style="fill:none;stroke:#fff;stroke-width:29.13px;stroke-linecap:round;stroke-linejoin:round;stroke-miterlimit:1;"/></g></g></g><defs><linearGradient id="_Linear1" x1="0" y1="0" x2="1" y2="0" gradientUnits="userSpaceOnUse" gradientTransform="matrix(105.514,-63.2502,63.2502,105.514,8613.84,-8343.21)"><stop offset="0" style="stop-color:#fff;stop-opacity:1"/><stop offset="1" style="stop-color:#fff;stop-opacity:0"/></linearGradient></defs></svg>