<?xml version="1.0" encoding="UTF-8" standalone="no"?><!DOCTYPE svg PUBLIC "-//W3C//DTD SVG 1.1//EN" "http://www.w3.org/Graphics/SVG/1.1/DTD/svg11.dtd"><svg width="100%" height="100%" viewBox="0 0 4267 4230" version="1.1" xmlns="http://www.w3.org/2000/svg" xmlns:xlink="http://www.w3.org/1999/xlink" xml:space="preserve" xmlns:serif="http://www.serif.com/" style="fill-rule:evenodd;clip-rule:evenodd;stroke-linecap:square;stroke-miterlimit:2;"><rect id="Black" x="3.848" y="0.494" width="4259.58" height="4226.29" style="fill:none;"/><g id="Black1" serif:id="Black"><g><g><g><g id="F"><path d="M2550.29,1250.13l37.492,-266.764l1525.03,0l-37.492,266.764l-1525.03,-0Z" style="stroke:#000;stroke-width:94.21px;"/><path d="M2451.9,1950.19l1360.03,0l-37.491,266.764l-1060.89,0l-144.33,1026.96l-299.146,0l181.822,-1293.73Z" style="stroke:#000;stroke-width:94.21px;"/></g><path d="M1461.14,1220.83c-49.155,144.947 -989.015,2023.09 -989.015,2023.09l-317.65,0l1185.84,-2260.55l322.275,0l607.492,2260.55l-340.779,0c0,0 -450.404,-1900.76 -468.163,-2023.09Z" style="stroke:#000;stroke-width:94.21px;"/></g></g><g><g transform="matrix(196.803,0,0,196.803,4079.55,3204.07)"></g><text x="3929.59px" y="3204.07px" style="font-family:'Poppins-Bold', 'Poppins';font-weight:700;font-size:196.803px;fill:url(#_Linear1);">C</text><circle cx="4003.59" cy="3134.7" r="109.219" style="fill:none;stroke:#000;stroke-width:29.13px;stroke-linecap:round;stroke-linejoin:round;stroke-miterlimit:1;"/></g></g></g><defs><linearGradient id="_Linear1" x1="0" y1="0" x2="1" y2="0" gradientUnits="userSpaceOnUse" gradientTransform="matrix(105.514,-63.2502,63.2502,105.514,8617.68,-8359.88)"><stop offset="0" style="stop-color:#000;stop-opacity:1"/><stop offset="1" style="stop-color:#000;stop-opacity:0"/></linearGradient></defs></svg>