<?xml version="1.0" encoding="UTF-8" standalone="no"?><!DOCTYPE svg PUBLIC "-//W3C//DTD SVG 1.1//EN" "http://www.w3.org/Graphics/SVG/1.1/DTD/svg11.dtd"><svg width="100%" height="100%" viewBox="0 0 4263 4263" version="1.1" xmlns="http://www.w3.org/2000/svg" xmlns:xlink="http://www.w3.org/1999/xlink" xml:space="preserve" xmlns:serif="http://www.serif.com/" style="fill-rule:evenodd;clip-rule:evenodd;stroke-linecap:square;stroke-miterlimit:2;"><rect id="Blue-Samsung" serif:id="Blue Samsung" x="0.995" y="1.446" width="4259.58" height="4259.63" style="fill:none;"/><g id="Blue-Samsung1" serif:id="Blue Samsung"><g><g><g id="F"><path d="M2531.49,1300.8l36.056,-256.552l1466.65,0l-36.056,256.552l-1466.65,0Z" style="fill:#2d66fe;stroke:#2d66fe;stroke-width:158.34px;"/><path d="M2436.87,1974.07l1307.97,0l-36.056,256.552l-1020.27,-0l-138.805,987.65l-287.694,0l174.861,-1244.2Z" style="fill:#2d66fe;stroke:#2d66fe;stroke-width:158.34px;"/></g><path d="M1484.03,1272.63c-47.273,139.398 -951.154,1945.64 -951.154,1945.64l-305.489,0l1140.44,-2174.02l309.938,0l584.237,2174.02l-327.734,0c0,0 -433.162,-1827.99 -450.241,-1945.64Z" style="fill:#2d66fe;stroke:#2d66fe;stroke-width:158.34px;"/></g><g><g transform="matrix(189.269,0,0,189.269,4002.21,3179.95)"></g><text x="3857.99px" y="3179.95px" style="font-family:'Poppins-Bold', 'Poppins';font-weight:700;font-size:189.269px;fill:url(#_Linear1);">C</text><circle cx="3929.15" cy="3113.23" r="105.038" style="fill:none;stroke:#2d66fe;stroke-width:28.01px;stroke-linecap:round;stroke-linejoin:round;stroke-miterlimit:1;"/></g></g></g><defs><linearGradient id="_Linear1" x1="0" y1="0" x2="1" y2="0" gradientUnits="userSpaceOnUse" gradientTransform="matrix(101.475,-60.8289,60.8289,101.475,8366.61,-7941.32)"><stop offset="0" style="stop-color:#2d66fe;stop-opacity:1"/><stop offset="1" style="stop-color:#2d66fe;stop-opacity:0"/></linearGradient></defs></svg>