<?xml version="1.0" encoding="UTF-8" standalone="no"?><!DOCTYPE svg PUBLIC "-//W3C//DTD SVG 1.1//EN" "http://www.w3.org/Graphics/SVG/1.1/DTD/svg11.dtd"><svg width="100%" height="100%" viewBox="0 0 1023 1024" version="1.1" xmlns="http://www.w3.org/2000/svg" xmlns:xlink="http://www.w3.org/1999/xlink" xml:space="preserve" xmlns:serif="http://www.serif.com/" style="fill-rule:evenodd;clip-rule:evenodd;stroke-linecap:square;stroke-miterlimit:2;"><rect id="LogoBlack" x="0.228" y="0.908" width="1022.3" height="1022.31" style="fill:none;"/><clipPath id="_clip1"><rect id="LogoBlack1" serif:id="LogoBlack" x="0.228" y="0.908" width="1022.3" height="1022.31"/></clipPath><g clip-path="url(#_clip1)"><g><g><g><path d="M361.411,303.036c-12.723,33.936 -248.501,473.651 -248.501,473.651l-74.369,-0l296.572,-529.247l75.451,0l123.288,529.247l-79.784,-0c0,-0 -89.524,-445.01 -92.657,-473.651Z" style="stroke:#000;stroke-width:38.55px;"/><g id="F"><path d="M616.16,309.896l11.013,-62.456l357.043,0l-11.013,62.456l-357.043,-0Z" style="stroke:#000;stroke-width:38.55px;"/><path d="M587.26,473.796l318.414,0l-11.012,62.455l-248.378,0l-42.395,240.436l-70.037,-0l53.408,-302.891Z" style="stroke:#000;stroke-width:38.55px;"/></g></g><g><g><path d="M708.983,740.455l6.453,-8.157c1.853,-2.572 2.003,-1.658 -3.503,-3.415c-2.735,-0.873 -5.9,-2.254 -7.106,-4.289c-3.722,-6.281 3.564,-12.291 14.018,-16.574c1.884,-0.771 3.802,-1.395 6.428,-1.914c1.846,-0.365 5.744,-1.141 7.752,-1.514c1.811,-0.336 3.301,-0.714 3.774,-1.142c3.775,-3.413 8.77,-12.165 13.39,-18.764c1.128,-1.612 2.112,-3.597 3.175,-5.191c1.652,-2.477 9.489,-17.482 9.572,-20.667c0.053,-2.027 0.401,-4.505 0.588,-7.973c0.798,-14.823 4.28,-36.153 10.43,-36.428c7.325,-0.327 1.998,20.596 -0.491,30.215c-0.578,2.049 -3.61,9.271 -5.434,14.967c-1.36,4.25 -1.452,8.719 -1.452,8.719c-0.051,10.09 -0.568,19.214 -0.77,28.494c1.567,0.1 3.526,-0.502 5.361,-0.936c2.461,-0.582 4.859,-1.216 7.391,-1.846c4.34,-1.08 34.317,-9.267 43.412,-12.275c3.335,-1.103 7.668,-3.292 7.907,-0.726c0.08,0.858 -1.15,1.898 -3.193,2.909c-1.897,0.937 -6.105,2.664 -7.947,3.152l-12.427,3.782l-18.13,5.072l-22.355,6.516c-0.488,0.717 -0.21,14.136 1.442,24.814c1.174,7.592 2.59,10.366 3.268,12.36c1.628,4.784 4.649,7.919 6.648,9.585c-0.347,0.063 4.769,3.727 6.071,4.3c1.733,0.761 3.568,1.304 5.444,1.954c2.292,0.795 4.912,0.78 5.698,0.562c3.994,-1.107 3.626,-3.658 -2.779,-8.234l-3.409,-2.069c0,-0 -4.818,-2.402 -5.617,-2.997c-2.497,-1.857 1.04,-3.019 2.798,-2.053l6.959,3.219c-0,-0 4.914,3.082 6.524,4.549c1.191,1.086 2.104,2.341 2.156,2.378c0.014,0.011 0.56,1.713 0.56,1.713c0,-0 0.246,1.821 -0.72,3.527c-1.161,2.046 -4.504,3.317 -4.504,3.317c-0.831,0.192 -3.005,0.858 -5.111,0.838c-2.58,-0.025 -5.074,-0.765 -5.074,-0.765c-2.873,-0.595 -5.753,-1.768 -8.64,-3.447c-2.119,-1.483 -4.578,-3.207 -6.947,-6.193c-0.63,-0.618 -2.398,-3.353 -3.881,-6.362c-1.681,-3.411 -2.884,-7.799 -3.507,-10.061c-0.124,-0.448 -1.498,-7.364 -1.677,-14.259c-0.173,-6.632 -0.31,-13.214 0.173,-15.384c-2.469,0.459 -9.1,1.717 -16.951,3.75l-5.884,1.045l-11.121,14.648l-2.43,3.664l5.306,1.143c0.226,0.19 5.377,0.79 7.509,1.997c1.357,0.768 0.846,3.581 -1.943,4.051c-0.877,0.147 -8.085,-1.155 -8.085,-1.155l-6.664,-1.475l-13.948,17.679l-4.444,5.377c0.174,-0.141 -2.443,3.045 -4.326,4.79c-1.713,1.588 -3.066,2.384 -3.797,2.809c-1.554,0.901 -4.126,0.044 -2.659,-2.634c0.807,-1.474 3.574,-2.325 5.862,-4.808c2.715,-2.946 10.737,-14.11 10.857,-14.188Zm22.528,-29.352c1.423,-2.072 -4.798,-0.054 -8.342,0.855c-8.353,2.141 -17.963,7.627 -13.228,10.159c1.844,0.986 4.555,2.321 6.869,3c3.447,1.013 2.478,1.364 3.562,0c3.212,-4.041 9.698,-11.917 11.139,-14.014Zm29.14,-12.284c0.421,-0.099 0.77,-0.472 0.825,-0.883c0.141,-2.084 -0.062,-6.568 0.184,-13.319c0.059,-1.619 1.335,-10.204 -0.19,-10.099c-0.522,0.036 -1.059,1.256 -1.568,2.21c-0.069,0.129 -1.723,3.505 -2.51,4.879c-2.449,4.276 -4.836,7.604 -6.729,10.825c-2.553,4.346 -5.045,6.506 -6.043,9.093c-0.431,1.116 2.455,0.559 6.113,-0.29c3.461,-0.804 7.235,-1.775 9.918,-2.416Zm9.481,-58.168c0.441,-1.407 2.319,-10.476 3.155,-15.749c0.213,-1.349 0.126,-2.199 -0.907,-1.998c-1.261,0.245 -1.706,5.192 -2.68,10.292c-0.602,3.156 -1.034,6.335 -1.053,7.877c-0.015,1.228 0.983,1.178 1.485,-0.422Z" style="fill:none;stroke:#000;stroke-width:5.75px;stroke-linecap:round;stroke-linejoin:round;stroke-miterlimit:1.5;"/><path d="M708.983,740.455l6.453,-8.157c1.853,-2.572 2.003,-1.658 -3.503,-3.415c-2.735,-0.873 -5.9,-2.254 -7.106,-4.289c-3.722,-6.281 3.564,-12.291 14.018,-16.574c1.884,-0.771 3.802,-1.395 6.428,-1.914c1.846,-0.365 5.744,-1.141 7.752,-1.514c1.811,-0.336 3.301,-0.714 3.774,-1.142c3.775,-3.413 8.77,-12.165 13.39,-18.764c1.128,-1.612 2.112,-3.597 3.175,-5.191c1.652,-2.477 9.489,-17.482 9.572,-20.667c0.053,-2.027 0.401,-4.505 0.588,-7.973c0.798,-14.823 4.28,-36.153 10.43,-36.428c7.325,-0.327 1.998,20.596 -0.491,30.215c-0.578,2.049 -3.61,9.271 -5.434,14.967c-1.36,4.25 -1.452,8.719 -1.452,8.719c-0.051,10.09 -0.568,19.214 -0.77,28.494c1.567,0.1 3.526,-0.502 5.361,-0.936c2.461,-0.582 4.859,-1.216 7.391,-1.846c4.34,-1.08 34.317,-9.267 43.412,-12.275c3.335,-1.103 7.668,-3.292 7.907,-0.726c0.08,0.858 -1.15,1.898 -3.193,2.909c-1.897,0.937 -6.105,2.664 -7.947,3.152l-12.427,3.782l-18.13,5.072l-22.355,6.516c-0.488,0.717 -0.21,14.136 1.442,24.814c1.174,7.592 2.59,10.366 3.268,12.36c1.628,4.784 4.649,7.919 6.648,9.585c-0.347,0.063 4.769,3.727 6.071,4.3c1.733,0.761 3.568,1.304 5.444,1.954c2.292,0.795 4.912,0.78 5.698,0.562c3.994,-1.107 3.626,-3.658 -2.779,-8.234l-3.409,-2.069c0,-0 -4.818,-2.402 -5.617,-2.997c-2.497,-1.857 1.04,-3.019 2.798,-2.053l6.959,3.219c-0,-0 4.914,3.082 6.524,4.549c1.191,1.086 2.104,2.341 2.156,2.378c0.014,0.011 0.56,1.713 0.56,1.713c0,-0 0.246,1.821 -0.72,3.527c-1.161,2.046 -4.504,3.317 -4.504,3.317c-0.831,0.192 -3.005,0.858 -5.111,0.838c-2.58,-0.025 -5.074,-0.765 -5.074,-0.765c-2.873,-0.595 -5.753,-1.768 -8.64,-3.447c-2.119,-1.483 -4.578,-3.207 -6.947,-6.193c-0.63,-0.618 -2.398,-3.353 -3.881,-6.362c-1.681,-3.411 -2.884,-7.799 -3.507,-10.061c-0.124,-0.448 -1.498,-7.364 -1.677,-14.259c-0.173,-6.632 -0.31,-13.214 0.173,-15.384c-2.469,0.459 -9.1,1.717 -16.951,3.75l-5.884,1.045l-11.121,14.648l-2.43,3.664l5.306,1.143c0.226,0.19 5.377,0.79 7.509,1.997c1.357,0.768 0.846,3.581 -1.943,4.051c-0.877,0.147 -8.085,-1.155 -8.085,-1.155l-6.664,-1.475l-13.948,17.679l-4.444,5.377c0.174,-0.141 -2.443,3.045 -4.326,4.79c-1.713,1.588 -3.066,2.384 -3.797,2.809c-1.554,0.901 -4.126,0.044 -2.659,-2.634c0.807,-1.474 3.574,-2.325 5.862,-4.808c2.715,-2.946 10.737,-14.11 10.857,-14.188Zm22.528,-29.352c1.423,-2.072 -4.798,-0.054 -8.342,0.855c-8.353,2.141 -17.963,7.627 -13.228,10.159c1.844,0.986 4.555,2.321 6.869,3c3.447,1.013 2.478,1.364 3.562,0c3.212,-4.041 9.698,-11.917 11.139,-14.014Zm29.14,-12.284c0.421,-0.099 0.77,-0.472 0.825,-0.883c0.141,-2.084 -0.062,-6.568 0.184,-13.319c0.059,-1.619 1.335,-10.204 -0.19,-10.099c-0.522,0.036 -1.059,1.256 -1.568,2.21c-0.069,0.129 -1.723,3.505 -2.51,4.879c-2.449,4.276 -4.836,7.604 -6.729,10.825c-2.553,4.346 -5.045,6.506 -6.043,9.093c-0.431,1.116 2.455,0.559 6.113,-0.29c3.461,-0.804 7.235,-1.775 9.918,-2.416Zm9.481,-58.168c0.441,-1.407 2.319,-10.476 3.155,-15.749c0.213,-1.349 0.126,-2.199 -0.907,-1.998c-1.261,0.245 -1.706,5.192 -2.68,10.292c-0.602,3.156 -1.034,6.335 -1.053,7.877c-0.015,1.228 0.983,1.178 1.485,-0.422Z"/><path d="M813.212,753.631c1.125,-2.273 9.099,-14.393 13.397,-21.275c8.042,-12.881 11.832,-17.75 14.854,-22.669c1.477,-2.404 1.763,-1.903 -5.869,-2.738c-3.149,-0.345 -4.668,-0.852 -6.361,-2.449c-0.72,-0.66 -1.153,-1.577 -1.235,-2.618c-0.023,-0.167 -0.037,-0.348 -0.052,-0.536c-0.256,-3.256 1.901,-6.738 5.209,-8.406l0.966,-0.487c0.703,-0.355 1.463,-0.466 2.135,-0.312l0.001,0.001c0.791,0.181 1.349,0.767 1.485,1.559c0.136,0.792 -0.168,1.685 -0.809,2.375c-0.694,0.669 -1.535,1.477 -2.564,2.442c-1.849,1.734 2.78,2.559 4.553,2.773c8.238,0.992 6.777,1.682 9.782,-3.936c1.822,-3.406 3.198,-6.11 5.203,-10.268c1.087,-2.255 3.656,-8.114 4.608,-10.456c1.132,-2.782 1.813,-5.057 2.945,-8.507c1.328,-4.049 1.294,-3.85 -10.167,-2.878c-8.331,0.707 -19.573,1.495 -27.988,1.827c-3.551,0.14 -22.591,-0.282 -24.796,-1.435c-2.138,-1.119 -3.506,-1.796 -4.474,-4.644c-1.825,-5.372 2.109,-16.973 8.55,-26.796c4.438,-6.771 11.965,-12.463 14.14,-14.197c5.915,-4.716 18.433,-10.125 24.768,-10.86c5.05,-0.586 10.76,-0.738 15.524,0.924c2.857,0.997 6.694,3.342 9.12,6.179c1.99,2.328 3.725,6.676 4.879,11.248c0.604,2.389 1.391,6.747 1.337,10.696c-0.026,1.866 -0.062,11.052 -1.165,16.977c-0.449,2.408 10.698,0.575 19.675,0.339c5.739,-0.151 12.205,-1.253 16.811,-0.109c11.679,2.902 3.11,10.597 -10.612,16.35c-9.514,3.989 -14.109,5.405 -17.423,6.47c-1.704,0.548 -7.449,2.172 -9.26,2.604c-2.732,0.651 -3.981,-1.319 -2.375,-2.858c1.219,-1.168 3.239,-0.995 7.121,-2.009c2.743,-0.716 6.136,-1.991 7.785,-2.66c2.765,-1.123 5.362,-2.011 7.232,-2.809c4.76,-2.032 7.904,-3.818 13.04,-6.444c3.378,-1.728 2.064,-2.168 1.983,-2.216c-0.784,-0.469 -5.718,-0.343 -10.304,-0.287c-4.841,0.059 -16.552,1.493 -22.175,1.754c-2.798,0.129 -2.18,-0.329 -3.348,2.685c-0.564,1.454 -3.157,7.518 -5.957,14.481c-2.003,4.98 -5,10.807 -6.219,13.543c-1.342,3.016 -2.813,5.623 -1.967,6.385c0.846,0.763 4.062,0.183 8.807,-0.245c4.678,-0.421 10.211,-1.814 14.927,-2.016c10.114,-0.435 7.232,5.997 1.184,6.558c-0.995,0.092 -21.839,2.41 -23.793,2.536c-5.344,0.345 -5.194,0.396 -6.749,2.515c-4.977,6.779 -6.452,9.705 -6.724,10.082c-3.234,4.487 -21.06,32.368 -22.939,34.698c-2.583,3.203 -0.785,5.255 -2.992,7.045c-1.435,1.164 -4.157,1.1 -5.176,0.188c-1.231,-1.102 -0.729,-3.688 1.472,-8.114Zm48.954,-129.786c-2.111,-2.924 -3.892,-5.584 -6.582,-6.991c-12.708,-6.647 -31.329,2.83 -42.97,14.542c-5.947,5.983 -9.12,12.691 -10.801,17.895c-1.323,4.096 -2.462,8.098 -0.154,9.343c2.507,1.354 9.037,1.732 16.576,1.851c18.268,0.286 42.388,-2.408 42.388,-2.408c4.643,0.011 4.266,-7.144 4.531,-12.879c0.213,-4.603 0.312,-9.551 -0.522,-13.804c-0.632,-3.22 -0.756,-5.181 -2.466,-7.549Z"/><path d="M874.371,653.434c0.977,0.034 2.291,0.057 3.434,-0.004c3.809,-0.205 8.647,-0.687 12.983,-0.801c6.001,-0.158 12.762,-1.222 17.58,-0.025c4.072,1.011 6.194,2.749 7.065,4.45c1.081,2.11 0.784,4.64 -1.291,7.241c-2.592,3.25 -8.55,6.993 -15.968,10.103c-9.641,4.041 -14.296,5.476 -17.655,6.556c-1.743,0.56 -7.621,2.222 -9.474,2.663c-2.485,0.592 -4.304,-0.162 -5.359,-1.199c-2,4.803 -4.741,10.157 -5.896,12.752c-0.345,0.774 -0.744,1.701 -1.092,2.518c1.405,-0.106 3.276,-0.254 5.046,-0.414c4.72,-0.425 10.303,-1.821 15.062,-2.025c3.074,-0.132 5.187,0.33 6.538,0.977c1.488,0.713 2.326,1.714 2.758,2.726c0.559,1.308 0.507,2.76 -0.209,4.165c-1.018,1.997 -3.793,4.083 -7.514,4.428c-0.999,0.093 -21.914,2.416 -23.874,2.543c-1.973,0.127 -3.589,0.351 -3.888,0.395c-0.117,0.148 -0.461,0.588 -0.727,0.951c-4.967,6.765 -6.438,9.685 -6.709,10.062c-3.246,4.504 -21.148,32.483 -23.034,34.821c-1.095,1.359 -0.982,2.458 -1.128,3.366c-0.245,1.52 -0.724,2.837 -2.291,4.108c-1.403,1.138 -3.538,1.651 -5.399,1.482c-1.462,-0.133 -2.725,-0.684 -3.507,-1.385c-1.066,-0.953 -1.73,-2.353 -1.6,-4.384c0.105,-1.656 0.86,-4.027 2.412,-7.151c1.141,-2.302 9.19,-14.563 13.535,-21.521c7.007,-11.222 10.784,-16.358 13.638,-20.747c-0.757,-0.083 -1.612,-0.177 -2.526,-0.277c-3.984,-0.436 -5.867,-1.188 -8.008,-3.203c-1.217,-1.123 -1.979,-2.661 -2.135,-4.414c-0.025,-0.196 -0.043,-0.403 -0.06,-0.619c-0.339,-4.312 2.402,-8.992 6.782,-11.2l0.966,-0.488c1.339,-0.675 2.794,-0.84 4.073,-0.546c1.962,0.449 3.34,1.91 3.678,3.876c0.274,1.598 -0.244,3.428 -1.537,4.82l-0.054,0.058l-0.057,0.055c-0.066,0.063 -0.133,0.128 -0.201,0.194c0.214,0.044 0.401,0.078 0.538,0.094c2.383,0.287 4.501,0.528 5.268,0.615c0.295,-0.551 0.951,-1.775 1.634,-3.051c1.803,-3.371 3.164,-6.046 5.148,-10.161c1.07,-2.22 3.597,-7.985 4.535,-10.291c1.059,-2.604 1.712,-4.755 2.736,-7.894c-1.587,0.071 -4.082,0.207 -7.051,0.459c-8.369,0.71 -19.664,1.502 -28.117,1.835c-2.899,0.115 -15.91,-0.137 -22.15,-0.846c-2.041,-0.231 -3.505,-0.607 -4.094,-0.915c-2.844,-1.488 -4.575,-2.476 -5.863,-6.267c-0.862,-2.538 -0.77,-6.257 0.298,-10.544c1.424,-5.711 4.516,-12.572 8.569,-18.754c4.64,-7.078 12.48,-13.057 14.753,-14.869c6.262,-4.992 19.524,-10.691 26.229,-11.468c5.468,-0.634 11.646,-0.734 16.804,1.066c3.246,1.132 7.602,3.801 10.358,7.025c2.203,2.577 4.205,7.353 5.482,12.413c0.645,2.555 1.482,7.216 1.424,11.439c-0.023,1.696 -0.067,9.263 -0.858,15.207Zm-43.307,45.818c-0.208,0.611 -0.3,1.243 -0.25,1.868c0.01,0.128 0.017,0.251 0.033,0.364l0.012,0.086l0.007,0.086c0.022,0.283 0.115,0.544 0.325,0.738l0.015,0.013c1.24,1.17 2.395,1.43 4.701,1.682c4.019,0.44 6.03,0.602 6.862,0.88c0.941,0.316 1.461,0.812 1.79,1.263c0.549,0.755 0.786,1.631 0.505,2.735c-0.121,0.474 -0.52,1.2 -1.15,2.226c-3.024,4.923 -6.817,9.795 -14.866,22.686c-4.248,6.805 -12.146,18.781 -13.26,21.03l-0.001,0.002c-0.78,1.57 -1.331,2.873 -1.627,3.94c-0.059,0.212 -0.103,0.458 -0.134,0.673c0.374,0.014 0.845,-0.012 1.078,-0.201c0.233,-0.188 0.216,-0.421 0.25,-0.649c0.061,-0.412 0.107,-0.845 0.187,-1.305c0.234,-1.35 0.69,-2.879 2.128,-4.663c1.872,-2.321 19.623,-30.103 22.844,-34.574c0.273,-0.378 1.752,-3.309 6.739,-10.103c0.917,-1.248 1.508,-1.939 2.299,-2.435c1.018,-0.639 2.532,-0.986 6.584,-1.247c1.947,-0.126 22.72,-2.438 23.712,-2.53c0.625,-0.058 1.289,-0.338 1.826,-0.624c-0.721,-0.127 -1.659,-0.238 -2.62,-0.196c-4.674,0.2 -10.156,1.589 -14.793,2.007c-3.49,0.315 -6.194,0.686 -7.807,0.618c-1.554,-0.065 -2.584,-0.561 -3.184,-1.101c-0.865,-0.78 -1.435,-2.029 -1.104,-3.809c0.254,-1.362 1.319,-3.522 2.37,-5.883c1.21,-2.717 4.189,-8.502 6.177,-13.446c2.794,-6.947 5.381,-12.997 5.944,-14.448c0.464,-1.198 0.695,-1.907 0.916,-2.337c0.301,-0.585 0.641,-0.975 1.01,-1.276c0.441,-0.359 0.943,-0.616 1.617,-0.755c0.452,-0.093 1.143,-0.095 2.354,-0.151c5.648,-0.261 17.411,-1.697 22.273,-1.756c3.809,-0.047 7.851,-0.124 9.732,0.09c0.855,0.097 1.485,0.304 1.877,0.493c0.133,0.081 1.253,0.777 1.644,1.647c0.143,0.318 0.277,0.697 0.311,1.136c0.487,-0.444 0.908,-0.884 1.255,-1.319c0.216,-0.27 0.395,-0.532 0.521,-0.791c0.039,-0.08 0.079,-0.205 0.102,-0.281c-0.102,-0.095 -0.36,-0.325 -0.582,-0.455c-0.668,-0.389 -1.567,-0.71 -2.705,-0.993c-4.396,-1.092 -10.566,0.048 -16.042,0.192c-7.487,0.198 -16.427,1.341 -19.462,0.553c-1.247,-0.324 -2.034,-0.941 -2.486,-1.547c-0.582,-0.779 -0.829,-1.684 -0.631,-2.746c1.071,-5.755 1.092,-14.678 1.117,-16.49c0.05,-3.675 -0.688,-7.73 -1.25,-9.953c-1.031,-4.084 -2.498,-8.003 -4.277,-10.083c-2.095,-2.451 -5.412,-4.471 -7.88,-5.332c-4.371,-1.525 -9.613,-1.32 -14.246,-0.783c-1.449,0.168 -3.241,0.598 -5.204,1.216c0.324,-0.094 0.648,-0.183 0.972,-0.268c6.887,-1.805 13.633,-1.618 19.325,1.36c3.058,1.599 5.181,4.531 7.581,7.855c1.974,2.734 2.226,4.962 2.956,8.679c0.876,4.465 0.797,9.658 0.573,14.491c-0.172,3.727 -0.171,7.999 -1.167,10.825c-1.042,2.957 -2.96,4.741 -6.065,4.796c-2.045,0.223 -25.015,2.684 -42.605,2.409c-8.151,-0.128 -15.187,-0.733 -17.897,-2.196c-1.822,-0.983 -2.776,-2.721 -2.833,-5.109c-0.05,-2.069 0.71,-4.847 1.616,-7.649c1.788,-5.538 5.17,-12.672 11.498,-19.039c4.974,-5.004 11.171,-9.606 17.666,-12.841c-3.752,1.76 -7.316,3.805 -9.722,5.723c-2.076,1.655 -9.29,7.061 -13.528,13.525c-3.675,5.605 -6.507,11.813 -7.798,16.991c-0.741,2.973 -1.031,5.543 -0.433,7.303c0.63,1.853 1.597,2.25 2.965,2.958c0.271,0.046 2.601,0.428 4.665,0.588c6.462,0.502 16.361,0.68 18.803,0.584c8.375,-0.331 19.566,-1.116 27.858,-1.819c6.124,-0.52 9.26,-0.731 10.692,-0.4c2.017,0.467 2.786,1.576 3.084,2.941c0.185,0.851 -0.01,2.198 -0.633,4.1c-1.157,3.526 -1.857,5.85 -3.013,8.693c-0.968,2.38 -3.578,8.331 -4.682,10.622c-2.025,4.202 -3.416,6.934 -5.258,10.376c-0.967,1.809 -1.517,3.002 -2.032,3.766c-0.712,1.056 -1.462,1.643 -2.387,2.003c-0.73,0.285 -1.635,0.423 -2.931,0.328c-1.136,-0.083 -2.776,-0.357 -5.311,-0.662c-1.035,-0.125 -2.883,-0.44 -4.243,-0.956c-0.941,-0.357 -1.7,-0.84 -2.183,-1.331c-0.768,-0.779 -1.104,-1.673 -1.089,-2.608Zm37.937,-24.944c0.075,-0.021 0.152,-0.04 0.23,-0.06c1.209,-0.297 2.856,-0.475 5.167,-1.079c2.618,-0.684 5.856,-1.903 7.429,-2.542c2.748,-1.116 5.328,-1.996 7.185,-2.789c2.709,-1.157 4.886,-2.233 7.217,-3.435c-0.458,0.001 -0.905,0.004 -1.333,0.009c-4.82,0.059 -16.478,1.492 -22.077,1.751c-0.161,0.008 -0.325,0.014 -0.483,0.02c-0.096,0.256 -0.204,0.542 -0.316,0.831c-0.355,0.916 -1.512,3.654 -3.019,7.294Zm37.461,-15.051c-0.009,-0.005 -0.018,-0.009 -0.027,-0.014c-0.008,-0.005 -0.013,-0.007 -0.013,-0.007c0,-0 0.016,0.008 0.04,0.021Zm-0,-0c0.067,0.033 0.127,0.065 0.179,0.097c-0.034,-0.021 -0.126,-0.069 -0.179,-0.097Zm-103.211,-3.043c0.802,0.358 2.025,0.573 3.529,0.77c3.058,0.401 7.102,0.556 11.5,0.625c18.111,0.283 42.024,-2.391 42.024,-2.391l0.163,-0.018l0.163,0.001c0.358,0.001 0.513,-0.277 0.654,-0.582c0.189,-0.411 0.322,-0.89 0.43,-1.411c0.492,-2.372 0.441,-5.427 0.567,-8.143c0.202,-4.374 0.321,-9.076 -0.472,-13.117c-0.534,-2.723 -0.529,-4.417 -1.975,-6.42c-1.822,-2.523 -3.262,-4.91 -5.583,-6.125c-4.474,-2.34 -9.787,-2.311 -15.2,-0.892c-8.762,2.296 -17.763,8.239 -24.397,14.913c-5.566,5.6 -8.531,11.881 -10.104,16.751c-0.592,1.834 -1.168,3.64 -1.313,5.134c-0.028,0.29 -0.003,0.696 0.014,0.905Z"/></g></g></g></g></g></svg>