<?xml version="1.0" encoding="UTF-8" standalone="no"?><!DOCTYPE svg PUBLIC "-//W3C//DTD SVG 1.1//EN" "http://www.w3.org/Graphics/SVG/1.1/DTD/svg11.dtd"><svg width="100%" height="100%" viewBox="0 0 1023 1023" version="1.1" xmlns="http://www.w3.org/2000/svg" xmlns:xlink="http://www.w3.org/1999/xlink" xml:space="preserve" xmlns:serif="http://www.serif.com/" style="fill-rule:evenodd;clip-rule:evenodd;stroke-linecap:square;stroke-miterlimit:2;"><rect id="LogoGreay" x="0.228" y="0.14" width="1022.3" height="1022.31" style="fill:none;"/><clipPath id="_clip1"><rect id="LogoGreay1" serif:id="LogoGreay" x="0.228" y="0.14" width="1022.3" height="1022.31"/></clipPath><g clip-path="url(#_clip1)"><g><g><g><path d="M361.411,302.268c-12.723,33.935 -248.501,473.65 -248.501,473.65l-74.369,0l296.572,-529.246l75.451,-0l123.288,529.246l-79.784,0c0,0 -89.524,-445.01 -92.657,-473.65Z" style="fill:#767676;stroke:#767676;stroke-width:38.55px;"/><g id="F"><path d="M616.16,309.127l11.013,-62.455l357.043,-0l-11.013,62.455l-357.043,0Z" style="fill:#767676;stroke:#767676;stroke-width:38.55px;"/><path d="M587.26,473.027l318.414,0l-11.012,62.456l-248.378,-0l-42.395,240.435l-70.037,0l53.408,-302.891Z" style="fill:#767676;stroke:#767676;stroke-width:38.55px;"/></g></g><g><g><path d="M708.983,739.687l6.453,-8.158c1.853,-2.572 2.003,-1.657 -3.503,-3.415c-2.735,-0.873 -5.9,-2.254 -7.106,-4.288c-3.722,-6.281 3.564,-12.291 14.018,-16.574c1.884,-0.772 3.802,-1.396 6.428,-1.915c1.846,-0.364 5.744,-1.14 7.752,-1.513c1.811,-0.337 3.301,-0.715 3.774,-1.143c3.775,-3.412 8.77,-12.164 13.39,-18.764c1.128,-1.611 2.112,-3.596 3.175,-5.19c1.652,-2.477 9.489,-17.483 9.572,-20.668c0.053,-2.027 0.401,-4.504 0.588,-7.973c0.798,-14.823 4.28,-36.153 10.43,-36.427c7.325,-0.327 1.998,20.596 -0.491,30.214c-0.578,2.05 -3.61,9.272 -5.434,14.968c-1.36,4.249 -1.452,8.719 -1.452,8.719c-0.051,10.089 -0.568,19.214 -0.77,28.493c1.567,0.1 3.526,-0.502 5.361,-0.936c2.461,-0.581 4.859,-1.216 7.391,-1.846c4.34,-1.08 34.317,-9.266 43.412,-12.275c3.335,-1.103 7.668,-3.291 7.907,-0.725c0.08,0.857 -1.15,1.898 -3.193,2.908c-1.897,0.938 -6.105,2.665 -7.947,3.152l-12.427,3.782l-18.13,5.073l-22.355,6.516c-0.488,0.716 -0.21,14.135 1.442,24.813c1.174,7.592 2.59,10.367 3.268,12.36c1.628,4.784 4.649,7.919 6.648,9.585c-0.347,0.063 4.769,3.728 6.071,4.3c1.733,0.762 3.568,1.305 5.444,1.955c2.292,0.794 4.912,0.78 5.698,0.562c3.994,-1.108 3.626,-3.658 -2.779,-8.235l-3.409,-2.069c0,0 -4.818,-2.401 -5.617,-2.996c-2.497,-1.858 1.04,-3.02 2.798,-2.054l6.959,3.219c-0,0 4.914,3.082 6.524,4.549c1.191,1.087 2.104,2.342 2.156,2.379c0.014,0.01 0.56,1.712 0.56,1.712c0,0 0.246,1.822 -0.72,3.527c-1.161,2.046 -4.504,3.317 -4.504,3.317c-0.831,0.193 -3.005,0.859 -5.111,0.838c-2.58,-0.025 -5.074,-0.765 -5.074,-0.765c-2.873,-0.595 -5.753,-1.767 -8.64,-3.447c-2.119,-1.483 -4.578,-3.206 -6.947,-6.193c-0.63,-0.617 -2.398,-3.352 -3.881,-6.362c-1.681,-3.41 -2.884,-7.798 -3.507,-10.061c-0.124,-0.447 -1.498,-7.363 -1.677,-14.258c-0.173,-6.633 -0.31,-13.214 0.173,-15.385c-2.469,0.46 -9.1,1.718 -16.951,3.75l-5.884,1.046l-11.121,14.647l-2.43,3.664l5.306,1.143c0.226,0.19 5.377,0.791 7.509,1.998c1.357,0.768 0.846,3.581 -1.943,4.05c-0.877,0.148 -8.085,-1.154 -8.085,-1.154l-6.664,-1.475l-13.948,17.678l-4.444,5.377c0.174,-0.141 -2.443,3.045 -4.326,4.791c-1.713,1.587 -3.066,2.384 -3.797,2.808c-1.554,0.902 -4.126,0.044 -2.659,-2.634c0.807,-1.474 3.574,-2.324 5.862,-4.808c2.715,-2.946 10.737,-14.109 10.857,-14.187Zm22.528,-29.353c1.423,-2.072 -4.798,-0.053 -8.342,0.855c-8.353,2.142 -17.963,7.628 -13.228,10.16c1.844,0.986 4.555,2.32 6.869,3c3.447,1.012 2.478,1.363 3.562,-0c3.212,-4.042 9.698,-11.918 11.139,-14.015Zm29.14,-12.283c0.421,-0.099 0.77,-0.473 0.825,-0.883c0.141,-2.084 -0.062,-6.568 0.184,-13.319c0.059,-1.619 1.335,-10.205 -0.19,-10.099c-0.522,0.036 -1.059,1.255 -1.568,2.21c-0.069,0.128 -1.723,3.505 -2.51,4.879c-2.449,4.275 -4.836,7.604 -6.729,10.825c-2.553,4.345 -5.045,6.506 -6.043,9.092c-0.431,1.117 2.455,0.559 6.113,-0.29c3.461,-0.803 7.235,-1.775 9.918,-2.415Zm9.481,-58.169c0.441,-1.406 2.319,-10.476 3.155,-15.748c0.213,-1.349 0.126,-2.2 -0.907,-1.999c-1.261,0.246 -1.706,5.192 -2.68,10.293c-0.602,3.155 -1.034,6.335 -1.053,7.877c-0.015,1.227 0.983,1.178 1.485,-0.423Z" style="fill:none;stroke:#767676;stroke-width:5.75px;stroke-linecap:round;stroke-linejoin:round;stroke-miterlimit:1.5;"/><path d="M708.983,739.687l6.453,-8.158c1.853,-2.572 2.003,-1.657 -3.503,-3.415c-2.735,-0.873 -5.9,-2.254 -7.106,-4.288c-3.722,-6.281 3.564,-12.291 14.018,-16.574c1.884,-0.772 3.802,-1.396 6.428,-1.915c1.846,-0.364 5.744,-1.14 7.752,-1.513c1.811,-0.337 3.301,-0.715 3.774,-1.143c3.775,-3.412 8.77,-12.164 13.39,-18.764c1.128,-1.611 2.112,-3.596 3.175,-5.19c1.652,-2.477 9.489,-17.483 9.572,-20.668c0.053,-2.027 0.401,-4.504 0.588,-7.973c0.798,-14.823 4.28,-36.153 10.43,-36.427c7.325,-0.327 1.998,20.596 -0.491,30.214c-0.578,2.05 -3.61,9.272 -5.434,14.968c-1.36,4.249 -1.452,8.719 -1.452,8.719c-0.051,10.089 -0.568,19.214 -0.77,28.493c1.567,0.1 3.526,-0.502 5.361,-0.936c2.461,-0.581 4.859,-1.216 7.391,-1.846c4.34,-1.08 34.317,-9.266 43.412,-12.275c3.335,-1.103 7.668,-3.291 7.907,-0.725c0.08,0.857 -1.15,1.898 -3.193,2.908c-1.897,0.938 -6.105,2.665 -7.947,3.152l-12.427,3.782l-18.13,5.073l-22.355,6.516c-0.488,0.716 -0.21,14.135 1.442,24.813c1.174,7.592 2.59,10.367 3.268,12.36c1.628,4.784 4.649,7.919 6.648,9.585c-0.347,0.063 4.769,3.728 6.071,4.3c1.733,0.762 3.568,1.305 5.444,1.955c2.292,0.794 4.912,0.78 5.698,0.562c3.994,-1.108 3.626,-3.658 -2.779,-8.235l-3.409,-2.069c0,0 -4.818,-2.401 -5.617,-2.996c-2.497,-1.858 1.04,-3.02 2.798,-2.054l6.959,3.219c-0,0 4.914,3.082 6.524,4.549c1.191,1.087 2.104,2.342 2.156,2.379c0.014,0.01 0.56,1.712 0.56,1.712c0,0 0.246,1.822 -0.72,3.527c-1.161,2.046 -4.504,3.317 -4.504,3.317c-0.831,0.193 -3.005,0.859 -5.111,0.838c-2.58,-0.025 -5.074,-0.765 -5.074,-0.765c-2.873,-0.595 -5.753,-1.767 -8.64,-3.447c-2.119,-1.483 -4.578,-3.206 -6.947,-6.193c-0.63,-0.617 -2.398,-3.352 -3.881,-6.362c-1.681,-3.41 -2.884,-7.798 -3.507,-10.061c-0.124,-0.447 -1.498,-7.363 -1.677,-14.258c-0.173,-6.633 -0.31,-13.214 0.173,-15.385c-2.469,0.46 -9.1,1.718 -16.951,3.75l-5.884,1.046l-11.121,14.647l-2.43,3.664l5.306,1.143c0.226,0.19 5.377,0.791 7.509,1.998c1.357,0.768 0.846,3.581 -1.943,4.05c-0.877,0.148 -8.085,-1.154 -8.085,-1.154l-6.664,-1.475l-13.948,17.678l-4.444,5.377c0.174,-0.141 -2.443,3.045 -4.326,4.791c-1.713,1.587 -3.066,2.384 -3.797,2.808c-1.554,0.902 -4.126,0.044 -2.659,-2.634c0.807,-1.474 3.574,-2.324 5.862,-4.808c2.715,-2.946 10.737,-14.109 10.857,-14.187Zm22.528,-29.353c1.423,-2.072 -4.798,-0.053 -8.342,0.855c-8.353,2.142 -17.963,7.628 -13.228,10.16c1.844,0.986 4.555,2.32 6.869,3c3.447,1.012 2.478,1.363 3.562,-0c3.212,-4.042 9.698,-11.918 11.139,-14.015Zm29.14,-12.283c0.421,-0.099 0.77,-0.473 0.825,-0.883c0.141,-2.084 -0.062,-6.568 0.184,-13.319c0.059,-1.619 1.335,-10.205 -0.19,-10.099c-0.522,0.036 -1.059,1.255 -1.568,2.21c-0.069,0.128 -1.723,3.505 -2.51,4.879c-2.449,4.275 -4.836,7.604 -6.729,10.825c-2.553,4.345 -5.045,6.506 -6.043,9.092c-0.431,1.117 2.455,0.559 6.113,-0.29c3.461,-0.803 7.235,-1.775 9.918,-2.415Zm9.481,-58.169c0.441,-1.406 2.319,-10.476 3.155,-15.748c0.213,-1.349 0.126,-2.2 -0.907,-1.999c-1.261,0.246 -1.706,5.192 -2.68,10.293c-0.602,3.155 -1.034,6.335 -1.053,7.877c-0.015,1.227 0.983,1.178 1.485,-0.423Z" style="fill:#767676;"/><path d="M813.212,752.862c1.125,-2.272 9.099,-14.393 13.397,-21.275c8.042,-12.881 11.832,-17.749 14.854,-22.668c1.477,-2.405 1.763,-1.904 -5.869,-2.739c-3.149,-0.344 -4.668,-0.852 -6.361,-2.448c-0.72,-0.66 -1.153,-1.578 -1.235,-2.619c-0.023,-0.167 -0.037,-0.347 -0.052,-0.535c-0.256,-3.257 1.901,-6.738 5.209,-8.406l0.966,-0.488c0.703,-0.354 1.463,-0.465 2.135,-0.311l0.001,0c0.791,0.181 1.349,0.767 1.485,1.56c0.136,0.792 -0.168,1.684 -0.809,2.374c-0.694,0.669 -1.535,1.478 -2.564,2.442c-1.849,1.735 2.78,2.56 4.553,2.773c8.238,0.992 6.777,1.682 9.782,-3.935c1.822,-3.407 3.198,-6.11 5.203,-10.269c1.087,-2.255 3.656,-8.113 4.608,-10.456c1.132,-2.782 1.813,-5.057 2.945,-8.506c1.328,-4.05 1.294,-3.851 -10.167,-2.879c-8.331,0.707 -19.573,1.496 -27.988,1.828c-3.551,0.14 -22.591,-0.282 -24.796,-1.436c-2.138,-1.118 -3.506,-1.795 -4.474,-4.644c-1.825,-5.371 2.109,-16.972 8.55,-26.796c4.438,-6.771 11.965,-12.463 14.14,-14.197c5.915,-4.716 18.433,-10.125 24.768,-10.86c5.05,-0.585 10.76,-0.737 15.524,0.925c2.857,0.996 6.694,3.341 9.12,6.178c1.99,2.329 3.725,6.677 4.879,11.248c0.604,2.39 1.391,6.748 1.337,10.696c-0.026,1.866 -0.062,11.053 -1.165,16.978c-0.449,2.408 10.698,0.575 19.675,0.338c5.739,-0.151 12.205,-1.253 16.811,-0.108c11.679,2.901 3.11,10.597 -10.612,16.35c-9.514,3.988 -14.109,5.404 -17.423,6.47c-1.704,0.547 -7.449,2.172 -9.26,2.603c-2.732,0.651 -3.981,-1.319 -2.375,-2.857c1.219,-1.168 3.239,-0.996 7.121,-2.009c2.743,-0.717 6.136,-1.991 7.785,-2.661c2.765,-1.123 5.362,-2.01 7.232,-2.809c4.76,-2.032 7.904,-3.817 13.04,-6.444c3.378,-1.728 2.064,-2.168 1.983,-2.216c-0.784,-0.468 -5.718,-0.342 -10.304,-0.286c-4.841,0.059 -16.552,1.493 -22.175,1.753c-2.798,0.13 -2.18,-0.328 -3.348,2.685c-0.564,1.454 -3.157,7.519 -5.957,14.481c-2.003,4.98 -5,10.808 -6.219,13.544c-1.342,3.015 -2.813,5.623 -1.967,6.385c0.846,0.762 4.062,0.183 8.807,-0.245c4.678,-0.422 10.211,-1.814 14.927,-2.017c10.114,-0.434 7.232,5.997 1.184,6.558c-0.995,0.093 -21.839,2.411 -23.793,2.537c-5.344,0.344 -5.194,0.395 -6.749,2.514c-4.977,6.78 -6.452,9.705 -6.724,10.082c-3.234,4.488 -21.06,32.369 -22.939,34.698c-2.583,3.203 -0.785,5.255 -2.992,7.045c-1.435,1.164 -4.157,1.1 -5.176,0.189c-1.231,-1.103 -0.729,-3.688 1.472,-8.115Zm48.954,-129.786c-2.111,-2.923 -3.892,-5.583 -6.582,-6.99c-12.708,-6.648 -31.329,2.83 -42.97,14.541c-5.947,5.984 -9.12,12.691 -10.801,17.896c-1.323,4.096 -2.462,8.097 -0.154,9.343c2.507,1.353 9.037,1.732 16.576,1.85c18.268,0.286 42.388,-2.407 42.388,-2.407c4.643,0.011 4.266,-7.145 4.531,-12.879c0.213,-4.604 0.312,-9.552 -0.522,-13.805c-0.632,-3.22 -0.756,-5.181 -2.466,-7.549Z" style="fill:#767676;"/><path d="M874.371,652.665c0.977,0.035 2.291,0.058 3.434,-0.003c3.809,-0.205 8.647,-0.688 12.983,-0.802c6.001,-0.158 12.762,-1.222 17.58,-0.025c4.072,1.012 6.194,2.75 7.065,4.45c1.081,2.11 0.784,4.641 -1.291,7.241c-2.592,3.25 -8.55,6.993 -15.968,10.103c-9.641,4.042 -14.296,5.476 -17.655,6.556c-1.743,0.56 -7.621,2.222 -9.474,2.664c-2.485,0.591 -4.304,-0.162 -5.359,-1.199c-2,4.802 -4.741,10.157 -5.896,12.751c-0.345,0.775 -0.744,1.701 -1.092,2.519c1.405,-0.107 3.276,-0.254 5.046,-0.414c4.72,-0.426 10.303,-1.821 15.062,-2.026c3.074,-0.132 5.187,0.331 6.538,0.978c1.488,0.712 2.326,1.713 2.758,2.726c0.559,1.307 0.507,2.759 -0.209,4.165c-1.018,1.996 -3.793,4.082 -7.514,4.427c-0.999,0.093 -21.914,2.417 -23.874,2.543c-1.973,0.127 -3.589,0.352 -3.888,0.395c-0.117,0.148 -0.461,0.589 -0.727,0.951c-4.967,6.766 -6.438,9.686 -6.709,10.062c-3.246,4.504 -21.148,32.483 -23.034,34.822c-1.095,1.359 -0.982,2.457 -1.128,3.366c-0.245,1.52 -0.724,2.837 -2.291,4.107c-1.403,1.139 -3.538,1.651 -5.399,1.482c-1.462,-0.132 -2.725,-0.684 -3.507,-1.384c-1.066,-0.954 -1.73,-2.354 -1.6,-4.384c0.105,-1.656 0.86,-4.028 2.412,-7.151c1.141,-2.302 9.19,-14.563 13.535,-21.521c7.007,-11.223 10.784,-16.358 13.638,-20.748c-0.757,-0.083 -1.612,-0.177 -2.526,-0.276c-3.984,-0.436 -5.867,-1.188 -8.008,-3.203c-1.217,-1.123 -1.979,-2.662 -2.135,-4.415c-0.025,-0.195 -0.043,-0.403 -0.06,-0.618c-0.339,-4.312 2.402,-8.992 6.782,-11.201l0.966,-0.487c1.339,-0.675 2.794,-0.84 4.073,-0.547c1.962,0.45 3.34,1.91 3.678,3.876c0.274,1.598 -0.244,3.429 -1.537,4.82l-0.054,0.058l-0.057,0.055c-0.066,0.064 -0.133,0.128 -0.201,0.194c0.214,0.044 0.401,0.078 0.538,0.095c2.383,0.287 4.501,0.528 5.268,0.614c0.295,-0.551 0.951,-1.774 1.634,-3.051c1.803,-3.371 3.164,-6.046 5.148,-10.161c1.07,-2.219 3.597,-7.985 4.535,-10.29c1.059,-2.605 1.712,-4.756 2.736,-7.895c-1.587,0.071 -4.082,0.208 -7.051,0.46c-8.369,0.709 -19.664,1.501 -28.117,1.835c-2.899,0.114 -15.91,-0.138 -22.15,-0.846c-2.041,-0.232 -3.505,-0.607 -4.094,-0.915c-2.844,-1.489 -4.575,-2.476 -5.863,-6.267c-0.862,-2.538 -0.77,-6.258 0.298,-10.545c1.424,-5.711 4.516,-12.571 8.569,-18.754c4.64,-7.078 12.48,-13.056 14.753,-14.869c6.262,-4.992 19.524,-10.69 26.229,-11.468c5.468,-0.634 11.646,-0.733 16.804,1.066c3.246,1.132 7.602,3.802 10.358,7.025c2.203,2.577 4.205,7.353 5.482,12.413c0.645,2.555 1.482,7.217 1.424,11.44c-0.023,1.695 -0.067,9.262 -0.858,15.206Zm-43.307,45.819c-0.208,0.61 -0.3,1.242 -0.25,1.868c0.01,0.128 0.017,0.25 0.033,0.364l0.012,0.085l0.007,0.086c0.022,0.284 0.115,0.545 0.325,0.738l0.015,0.014c1.24,1.169 2.395,1.429 4.701,1.682c4.019,0.44 6.03,0.601 6.862,0.88c0.941,0.315 1.461,0.811 1.79,1.263c0.549,0.755 0.786,1.63 0.505,2.735c-0.121,0.473 -0.52,1.2 -1.15,2.225c-3.024,4.923 -6.817,9.796 -14.866,22.686c-4.248,6.805 -12.146,18.781 -13.26,21.031l-0.001,0.002c-0.78,1.569 -1.331,2.872 -1.627,3.94c-0.059,0.212 -0.103,0.457 -0.134,0.672c0.374,0.015 0.845,-0.011 1.078,-0.201c0.233,-0.188 0.216,-0.421 0.25,-0.649c0.061,-0.411 0.107,-0.844 0.187,-1.305c0.234,-1.349 0.69,-2.879 2.128,-4.662c1.872,-2.321 19.623,-30.104 22.844,-34.574c0.273,-0.378 1.752,-3.309 6.739,-10.103c0.917,-1.249 1.508,-1.939 2.299,-2.436c1.018,-0.638 2.532,-0.986 6.584,-1.247c1.947,-0.125 22.72,-2.438 23.712,-2.53c0.625,-0.058 1.289,-0.337 1.826,-0.624c-0.721,-0.127 -1.659,-0.237 -2.62,-0.196c-4.674,0.201 -10.156,1.59 -14.793,2.008c-3.49,0.314 -6.194,0.685 -7.807,0.618c-1.554,-0.065 -2.584,-0.561 -3.184,-1.102c-0.865,-0.779 -1.435,-2.028 -1.104,-3.808c0.254,-1.362 1.319,-3.523 2.37,-5.883c1.21,-2.717 4.189,-8.502 6.177,-13.447c2.794,-6.946 5.381,-12.997 5.944,-14.447c0.464,-1.198 0.695,-1.908 0.916,-2.337c0.301,-0.585 0.641,-0.975 1.01,-1.277c0.441,-0.359 0.943,-0.616 1.617,-0.755c0.452,-0.093 1.143,-0.094 2.354,-0.15c5.648,-0.262 17.411,-1.697 22.273,-1.757c3.809,-0.046 7.851,-0.124 9.732,0.09c0.855,0.097 1.485,0.305 1.877,0.494c0.133,0.08 1.253,0.776 1.644,1.646c0.143,0.319 0.277,0.698 0.311,1.136c0.487,-0.443 0.908,-0.883 1.255,-1.318c0.216,-0.271 0.395,-0.533 0.521,-0.792c0.039,-0.08 0.079,-0.205 0.102,-0.281c-0.102,-0.094 -0.36,-0.325 -0.582,-0.455c-0.668,-0.389 -1.567,-0.71 -2.705,-0.993c-4.396,-1.092 -10.566,0.049 -16.042,0.193c-7.487,0.197 -16.427,1.341 -19.462,0.552c-1.247,-0.324 -2.034,-0.941 -2.486,-1.546c-0.582,-0.78 -0.829,-1.685 -0.631,-2.747c1.071,-5.754 1.092,-14.678 1.117,-16.49c0.05,-3.675 -0.688,-7.729 -1.25,-9.952c-1.031,-4.085 -2.498,-8.004 -4.277,-10.084c-2.095,-2.45 -5.412,-4.47 -7.88,-5.331c-4.371,-1.525 -9.613,-1.321 -14.246,-0.783c-1.449,0.168 -3.241,0.597 -5.204,1.215c0.324,-0.094 0.648,-0.183 0.972,-0.268c6.887,-1.805 13.633,-1.618 19.325,1.36c3.058,1.6 5.181,4.532 7.581,7.855c1.974,2.734 2.226,4.962 2.956,8.679c0.876,4.465 0.797,9.659 0.573,14.492c-0.172,3.726 -0.171,7.999 -1.167,10.825c-1.042,2.957 -2.96,4.741 -6.065,4.795c-2.045,0.224 -25.015,2.685 -42.605,2.409c-8.151,-0.128 -15.187,-0.732 -17.897,-2.195c-1.822,-0.984 -2.776,-2.721 -2.833,-5.109c-0.05,-2.069 0.71,-4.847 1.616,-7.65c1.788,-5.537 5.17,-12.672 11.498,-19.038c4.974,-5.005 11.171,-9.606 17.666,-12.842c-3.752,1.761 -7.316,3.806 -9.722,5.724c-2.076,1.655 -9.29,7.06 -13.528,13.524c-3.675,5.606 -6.507,11.813 -7.798,16.991c-0.741,2.973 -1.031,5.543 -0.433,7.303c0.63,1.854 1.597,2.25 2.965,2.959c0.271,0.045 2.601,0.427 4.665,0.588c6.462,0.502 16.361,0.68 18.803,0.583c8.375,-0.33 19.566,-1.115 27.858,-1.819c6.124,-0.519 9.26,-0.731 10.692,-0.399c2.017,0.467 2.786,1.575 3.084,2.94c0.185,0.852 -0.01,2.198 -0.633,4.1c-1.157,3.526 -1.857,5.85 -3.013,8.694c-0.968,2.38 -3.578,8.331 -4.682,10.621c-2.025,4.202 -3.416,6.934 -5.258,10.377c-0.967,1.809 -1.517,3.001 -2.032,3.766c-0.712,1.055 -1.462,1.642 -2.387,2.003c-0.73,0.285 -1.635,0.422 -2.931,0.327c-1.136,-0.083 -2.776,-0.357 -5.311,-0.662c-1.035,-0.124 -2.883,-0.44 -4.243,-0.956c-0.941,-0.357 -1.7,-0.84 -2.183,-1.33c-0.768,-0.779 -1.104,-1.674 -1.089,-2.608Zm37.937,-24.945c0.075,-0.02 0.152,-0.04 0.23,-0.059c1.209,-0.298 2.856,-0.476 5.167,-1.08c2.618,-0.683 5.856,-1.903 7.429,-2.542c2.748,-1.115 5.328,-1.996 7.185,-2.789c2.709,-1.156 4.886,-2.233 7.217,-3.434c-0.458,0.001 -0.905,0.004 -1.333,0.009c-4.82,0.059 -16.478,1.491 -22.077,1.751c-0.161,0.007 -0.325,0.014 -0.483,0.019c-0.096,0.256 -0.204,0.542 -0.316,0.832c-0.355,0.915 -1.512,3.654 -3.019,7.293Zm37.461,-15.051c-0.009,-0.004 -0.018,-0.009 -0.027,-0.013c-0.008,-0.005 -0.013,-0.008 -0.013,-0.008c0,0 0.016,0.009 0.04,0.021Zm-0,0c0.067,0.033 0.127,0.066 0.179,0.097c-0.034,-0.02 -0.126,-0.069 -0.179,-0.097Zm-103.211,-3.043c0.802,0.359 2.025,0.573 3.529,0.771c3.058,0.401 7.102,0.555 11.5,0.624c18.111,0.284 42.024,-2.39 42.024,-2.39l0.163,-0.018l0.163,0c0.358,0.001 0.513,-0.277 0.654,-0.581c0.189,-0.412 0.322,-0.891 0.43,-1.411c0.492,-2.373 0.441,-5.427 0.567,-8.143c0.202,-4.374 0.321,-9.077 -0.472,-13.118c-0.534,-2.723 -0.529,-4.416 -1.975,-6.419c-1.822,-2.523 -3.262,-4.911 -5.583,-6.125c-4.474,-2.341 -9.787,-2.312 -15.2,-0.893c-8.762,2.297 -17.763,8.239 -24.397,14.913c-5.566,5.6 -8.531,11.881 -10.104,16.752c-0.592,1.833 -1.168,3.64 -1.313,5.133c-0.028,0.291 -0.003,0.697 0.014,0.905Z" style="fill:#767676;"/></g></g></g></g></g></svg>