<?xml version="1.0" encoding="UTF-8" standalone="no"?><!DOCTYPE svg PUBLIC "-//W3C//DTD SVG 1.1//EN" "http://www.w3.org/Graphics/SVG/1.1/DTD/svg11.dtd"><svg width="100%" height="100%" viewBox="0 0 977 1000" version="1.1" xmlns="http://www.w3.org/2000/svg" xmlns:xlink="http://www.w3.org/1999/xlink" xml:space="preserve" xmlns:serif="http://www.serif.com/" style="fill-rule:evenodd;clip-rule:evenodd;stroke-linejoin:round;stroke-miterlimit:2;"><rect id="Tavola-da-disegno19" serif:id="Tavola da disegno19" x="0.042" y="0.181" width="976" height="999" style="fill:none;"/><clipPath id="_clip1"><rect id="Tavola-da-disegno191" serif:id="Tavola da disegno19" x="0.042" y="0.181" width="976" height="999"/></clipPath><g clip-path="url(#_clip1)"><g><path d="M124.036,720.665l-0.451,0.511c0,0 20.326,-35.13 20.324,-35.126c0.889,-1.747 1.786,-3.467 2.37,-4.58c-0.649,-0.224 -1.464,-0.49 -2.267,-0.707c-3.41,-0.923 -8.635,-2.168 -16.291,-4.457c-13.268,-3.966 -28.883,-10.42 -36.326,-19.662c-6.046,-7.508 -8.702,-14.967 -8.696,-22.204c0.005,-7.231 2.684,-14.297 7.612,-21.04c9.187,-12.569 26.43,-24.124 47.679,-33.658c7.629,-3.423 15.549,-6.195 26.716,-8.497c7.644,-1.576 23.78,-4.928 32.117,-6.542c4.302,-0.832 8.118,-1.714 10.821,-2.677c1.163,-0.414 2.081,-0.699 2.488,-1.154c13.024,-14.577 26.307,-52.011 40.052,-80.199c3.378,-6.929 5.789,-15.465 8.904,-22.319c3.364,-7.404 14.078,-41.029 19.346,-65.198c2.149,-9.858 3.484,-18.047 2.759,-21.93c-1.636,-8.775 -2.412,-19.495 -4.795,-34.509c-7.178,-45.22 -11.495,-104.338 -4.381,-136.147c1.625,-7.265 3.866,-13.172 6.709,-17.332c3.347,-4.896 7.561,-7.555 12.557,-7.78c10.793,-0.487 18.488,7.964 23.168,22.084c9.613,29.01 7.43,82.58 6.072,111.974c-0.001,0.026 -0.003,0.053 -0.005,0.08c-0.615,8.864 -7.084,40.1 -9.734,64.737c-1.881,17.489 1.549,35.869 1.684,36.584c8.828,42.538 14.892,81.107 22.295,120.204c5.868,-0.275 12.341,-2.412 18.556,-3.958c10.074,-2.506 19.832,-5.241 30.17,-7.957c17.715,-4.654 139.42,-39.932 175.861,-52.896c8.279,-2.945 17.814,-7.554 24.851,-8.364c3.715,-0.427 6.873,0.152 9.231,1.835c1.714,1.223 3.083,3.032 3.887,5.66c0.734,2.404 0.279,5.067 -1.634,7.785c-1.986,2.822 -5.81,5.897 -11.13,8.835c-7.477,4.131 -24.37,11.71 -32.088,13.891l-50.111,16.304c-0.029,0.009 -0.057,0.018 -0.085,0.026l-73.59,21.888l-87.976,27.331c0.146,1.254 0.378,3.011 0.693,4.739c3.241,17.783 14.54,61.969 28.004,98.627c11.928,32.475 20.515,44.338 25.23,52.866c11.099,20.075 26.581,33.224 36.458,40.215c0.364,0.257 0.668,0.576 0.903,0.935c2.623,1.702 23.532,15.224 28.538,17.235c8.107,3.258 16.448,5.575 25.066,8.356c9.764,3.15 20.124,3.263 23.061,2.397c2.036,-0.6 3.704,-1.29 4.959,-2.132c0.826,-0.553 1.451,-1.13 1.734,-1.852c0.243,-0.618 0.173,-1.309 -0.074,-2.08c-0.415,-1.296 -1.291,-2.7 -2.571,-4.265c-4.138,-5.064 -12.128,-11.262 -24.362,-18.855c-0,-0 -16.414,-8.823 -16.412,-8.823c-1.75,-0.792 -23.438,-10.621 -27.341,-13.128c-5.445,-3.497 -6.752,-7.074 -6.486,-9.543c0.242,-2.237 1.667,-4.245 4.159,-5.568c3.833,-2.035 10.673,-2.354 15.843,0.144l32.909,13.858c0.114,0.048 0.226,0.102 0.334,0.162c0,-0 24.361,13.496 32.767,19.915c5.678,4.335 10.489,9.271 11.585,10.336c0.03,0.03 0.073,0.071 0.073,0.071c0,-0 -0.009,-0.007 -0.025,-0.019c0.255,0.226 0.591,0.594 0.907,1.156c0.695,1.235 3.901,7.242 3.901,7.242c0.085,0.16 0.157,0.326 0.217,0.496c-0,0 3.122,9.055 0.117,17.531c-1.468,4.141 -4.758,7.718 -8.273,10.443c-4.886,3.789 -10.078,5.929 -10.078,5.929c-0.165,0.068 -0.334,0.124 -0.507,0.166c-3.546,0.863 -12.678,3.808 -22.15,3.716c-10.895,-0.107 -22.051,-3.036 -23.37,-3.393c-13.205,-2.634 -26.987,-7.786 -41.268,-15.177c-0.072,-0.038 -0.142,-0.077 -0.211,-0.119c-10.669,-6.5 -23.039,-14.065 -36.197,-27.12c-3.524,-2.954 -13.824,-14.886 -23.104,-28.039c-10.502,-14.886 -19.833,-34.032 -24.656,-43.907c-0.954,-1.953 -13.395,-32.151 -20.581,-62.265c-6.086,-25.507 -11.959,-50.852 -13.217,-63.032c-12.278,2.424 -37.124,7.571 -65.578,15.365c-0.095,0.026 -0.191,0.048 -0.288,0.066c-0,-0 -22.816,4.212 -22.816,4.212l-33.709,61.652l-5.288,11.729l19.698,4.056c0.258,0.053 0.509,0.135 0.747,0.244c0.08,0.021 0.199,0.052 0.292,0.073c4.734,1.091 24.573,3.804 34.078,8.607c6.393,3.23 8.694,12.453 3.882,18.679c-1.925,2.491 -4.999,4.554 -9.524,5.344c-0.869,0.152 -3.105,0.088 -6.122,-0.242c-10.213,-1.121 -31.038,-4.741 -31.038,-4.741c-0.042,-0.007 -0.083,-0.015 -0.124,-0.024l-27.645,-5.844l-42.73,74.116c-0.016,0.028 -0.032,0.056 -0.049,0.083l-14.022,22.834c-0.052,0.125 -0.111,0.254 -0.18,0.385c-0.991,1.912 -8.597,14.123 -14.667,21.127c-6.244,7.205 -11.616,10.82 -14.524,12.746c-2.777,1.837 -6.537,2.485 -10.042,1.797c-3.617,-0.71 -6.907,-2.808 -8.674,-6.157c-1.447,-2.741 -1.95,-6.408 -0.403,-11.021c1.037,-3.091 3.671,-5.795 7.239,-8.597c4.188,-3.29 9.783,-6.949 14.117,-13.062c8.063,-11.372 28.477,-51.297 32.804,-59.411c0.517,-0.969 0.992,-1.65 1.322,-2.07Zm2.564,2.255c-0.445,0.338 -24.832,48.523 -33.849,61.24c-7.598,10.718 -18.762,14.391 -20.895,20.753c-3.876,11.558 8.016,15.259 13.894,11.368c2.767,-1.831 7.876,-5.269 13.815,-12.122c6.53,-7.535 14.904,-21.286 14.28,-20.676l14.253,-23.211l43.993,-76.307l30.119,6.367c0,0 32.313,5.621 35.965,4.983c11.607,-2.025 11.232,-14.168 4.671,-17.484c-10.311,-5.209 -33.101,-7.801 -34.249,-8.621l-23.959,-4.933l7.131,-15.816l34.567,-63.224l24.445,-4.512c32.027,-8.773 59.499,-14.204 69.736,-16.187c-0.093,9.369 6.536,37.776 13.368,66.404c7.102,29.763 19.38,59.615 20.323,61.546c4.769,9.765 13.985,28.705 24.372,43.427c9.164,12.99 19.305,24.795 22.595,27.46c12.967,12.892 25.165,20.332 35.672,26.733c14.005,7.249 27.515,12.309 40.461,14.877c0,0 11.447,3.194 22.61,3.303c9.108,0.089 17.882,-2.787 21.292,-3.617c0,-0 13.269,-5.486 16.399,-14.318c2.61,-7.36 -0.124,-15.223 -0.124,-15.223c0,-0 -3.919,-7.347 -3.993,-7.393c-0.255,-0.159 -5.348,-5.576 -11.488,-10.265c-8.295,-6.334 -32.34,-19.636 -32.34,-19.636l-32.996,-13.894c-8.476,-4.17 -22.679,0.846 -10.195,8.864c3.999,2.568 27.002,12.934 27.002,12.934l16.614,8.931c31.849,19.752 35.777,30.761 19.554,35.541c-3.196,0.942 -14.49,1.004 -25.115,-2.424c-8.698,-2.806 -17.114,-5.15 -25.296,-8.438c-6.148,-2.47 -31.593,-18.287 -30.154,-18.559c-10.16,-7.192 -26.077,-20.723 -37.494,-41.373c-4.758,-8.605 -13.415,-20.58 -25.451,-53.35c-16.928,-46.09 -30.444,-104.012 -28.996,-107.105l90.531,-28.125l73.61,-21.894l50.178,-16.325c7.507,-2.105 24.087,-9.558 31.415,-13.606c7.893,-4.36 12.248,-8.852 11.117,-12.554c-3.385,-11.075 -20.086,-1.629 -33.471,3.133c-36.499,12.984 -158.4,48.321 -176.144,52.983c-10.352,2.719 -20.124,5.458 -30.213,7.968c-7.526,1.872 -15.429,4.472 -22.284,4.039c-7.647,-40.053 -13.786,-79.438 -22.824,-122.987c0,0 -3.703,-19.294 -1.73,-37.635c2.644,-24.587 9.108,-55.759 9.722,-64.605c1.919,-41.518 5.715,-131.83 -25.604,-130.418c-26.3,1.185 -21.759,93.253 -11.602,157.234c2.376,14.973 3.147,25.665 4.779,34.416c2.565,13.747 -17.5,78.517 -22.358,89.208c-3.127,6.881 -5.553,15.448 -8.945,22.404c-13.89,28.486 -27.423,66.263 -40.585,80.993c-1.649,1.846 -7.737,3.478 -15.244,4.931c-8.327,1.611 -24.442,4.959 -32.076,6.533c-10.865,2.239 -18.571,4.934 -25.993,8.264c-41.202,18.486 -67.144,44.428 -45.308,71.539c7.072,8.782 22.003,14.742 34.611,18.51c25.382,7.587 23.895,3.639 18.254,14.74l-20.373,35.211Zm-13.237,64.012c0.704,0.139 1.803,0.128 2.915,-0.958c-0.796,0.777 -1.879,1.102 -2.915,0.958Z" style="fill:#fff9f9;"/><path d="M126.6,722.92l20.373,-35.211c5.641,-11.101 7.128,-7.153 -18.254,-14.74c-12.608,-3.768 -27.539,-9.728 -34.611,-18.51c-21.836,-27.111 4.106,-53.053 45.308,-71.539c7.422,-3.33 15.128,-6.025 25.993,-8.264c7.634,-1.574 23.749,-4.922 32.076,-6.533c7.507,-1.453 13.595,-3.085 15.244,-4.931c13.162,-14.73 26.695,-52.507 40.585,-80.993c3.392,-6.956 5.818,-15.523 8.945,-22.404c4.858,-10.691 24.923,-75.461 22.358,-89.208c-1.632,-8.751 -2.403,-19.443 -4.779,-34.416c-10.157,-63.981 -14.698,-156.049 11.602,-157.234c31.319,-1.412 27.523,88.9 25.604,130.418c-0.614,8.846 -7.078,40.018 -9.722,64.605c-1.973,18.341 1.73,37.635 1.73,37.635c9.038,43.549 15.177,82.934 22.824,122.987c6.855,0.433 14.758,-2.167 22.284,-4.039c10.089,-2.51 19.861,-5.249 30.213,-7.968c17.744,-4.662 139.645,-39.999 176.144,-52.983c13.385,-4.762 30.086,-14.208 33.471,-3.133c1.131,3.702 -3.224,8.194 -11.117,12.554c-7.328,4.048 -23.908,11.501 -31.415,13.606l-50.178,16.325l-73.61,21.894l-90.531,28.125c-1.448,3.093 12.068,61.015 28.996,107.105c12.036,32.77 20.693,44.745 25.451,53.35c11.417,20.65 27.334,34.181 37.494,41.373c-1.439,0.272 24.006,16.089 30.154,18.559c8.182,3.288 16.598,5.632 25.296,8.438c10.625,3.428 21.919,3.366 25.115,2.424c16.223,-4.78 12.295,-15.789 -19.554,-35.541l-16.614,-8.931c-0,-0 -23.003,-10.366 -27.002,-12.934c-12.484,-8.018 1.719,-13.034 10.195,-8.864l32.996,13.894c0,0 24.045,13.302 32.34,19.636c6.14,4.689 11.233,10.106 11.488,10.265c0.074,0.046 3.993,7.393 3.993,7.393c0,-0 2.734,7.863 0.124,15.223c-3.13,8.832 -16.399,14.318 -16.399,14.318c-3.41,0.83 -12.184,3.706 -21.292,3.617c-11.163,-0.109 -22.61,-3.303 -22.61,-3.303c-12.946,-2.568 -26.456,-7.628 -40.461,-14.877c-10.507,-6.401 -22.705,-13.841 -35.672,-26.733c-3.29,-2.665 -13.431,-14.47 -22.595,-27.46c-10.387,-14.722 -19.603,-33.662 -24.372,-43.427c-0.943,-1.931 -13.221,-31.783 -20.323,-61.546c-6.832,-28.628 -13.461,-57.035 -13.368,-66.404c-10.237,1.983 -37.709,7.414 -69.736,16.187l-24.445,4.512l-34.567,63.224l-7.131,15.816l23.959,4.933c1.148,0.82 23.938,3.412 34.249,8.621c6.561,3.316 6.936,15.459 -4.671,17.484c-3.652,0.638 -35.965,-4.983 -35.965,-4.983l-30.119,-6.367l-43.993,76.307l-14.253,23.211c0.624,-0.61 -7.75,13.141 -14.28,20.676c-5.939,6.853 -11.048,10.291 -13.815,12.122c-5.878,3.891 -17.77,0.19 -13.894,-11.368c2.133,-6.362 13.297,-10.035 20.895,-20.753c9.017,-12.717 33.404,-60.902 33.849,-61.24Zm70.321,-126.696c4.242,-8.944 -20.761,-0.231 -35.226,3.691c-34.097,9.243 -70.549,32.923 -47.784,43.852c8.864,4.256 21.795,10.015 32.407,12.949c15.811,4.371 11.95,5.886 15.377,0c10.156,-17.445 30.932,-51.439 35.226,-60.492Zm114.529,-53.02c1.725,-0.427 2.889,-2.04 2.751,-3.812c-1.305,-8.994 -6.298,-28.348 -11.429,-57.489c-1.23,-6.988 -3.599,-44.045 -10.087,-43.59c-2.221,0.155 -3.419,5.419 -4.742,9.539c-0.178,0.555 -4.223,15.128 -6.359,21.059c-6.646,18.454 -13.9,32.822 -19.115,46.724c-7.036,18.757 -15.811,28.083 -17.745,39.248c-0.835,4.82 11.112,2.412 26.122,-1.253c14.207,-3.467 29.609,-7.661 40.604,-10.426Zm-12.449,-251.076c0.615,-6.072 0.399,-45.219 -0.832,-67.977c-0.315,-5.822 -1.474,-9.494 -5.746,-8.626c-5.221,1.06 -2.6,22.412 -2.126,44.426c0.294,13.62 1.348,27.345 2.682,34c1.062,5.299 5.322,5.085 6.022,-1.823Z" style="fill:#fff;"/><path d="M588.649,779.791c2.771,-9.809 26.077,-62.126 38.313,-91.832c22.9,-55.598 34.795,-76.612 43.328,-97.845c4.169,-10.377 5.862,-8.216 -27.851,-11.82c-13.909,-1.487 -20.934,-3.677 -29.709,-10.568c-3.714,-2.85 -6.422,-6.809 -7.732,-11.303c-0.254,-0.721 -0.48,-1.499 -0.717,-2.311c-4.096,-14.057 2.023,-29.084 14.773,-36.284l3.726,-2.104c2.709,-1.53 5.888,-2.008 8.929,-1.344l0.004,0.001c3.581,0.782 6.528,3.311 7.842,6.731c1.315,3.42 0.822,7.272 -1.313,10.251c-2.382,2.886 -5.272,6.378 -8.827,10.541c-6.393,7.486 14.347,11.047 22.201,11.969c36.473,4.282 30.798,7.261 38.616,-16.987c4.741,-14.704 8.201,-26.373 13.039,-44.324c2.623,-9.733 8.337,-35.019 10.3,-45.131c2.331,-12.007 3.185,-21.827 4.904,-36.718c2.018,-17.478 2.053,-16.62 -46.53,-12.423c-35.317,3.05 -83.127,6.453 -119.147,7.886c-15.203,0.605 -97.787,-1.216 -108.365,-6.196c-10.253,-4.826 -16.781,-7.749 -23.573,-20.044c-12.807,-23.186 -6.47,-73.26 12.319,-115.662c12.95,-29.225 40.22,-53.795 48.018,-61.278c21.209,-20.356 70.283,-43.705 96.957,-46.876c21.266,-2.528 45.775,-3.184 67.869,3.99c13.247,4.302 31.964,14.423 45.037,26.668c10.73,10.051 22.209,28.818 31.387,48.552c4.797,10.312 12.195,29.123 15.585,46.167c1.601,8.055 9.875,47.707 10.549,73.281c0.274,10.394 46.714,2.482 85.25,1.462c24.635,-0.652 51.536,-5.41 72.474,-0.469c53.08,12.525 23.149,45.74 -30.812,70.572c-37.412,17.216 -55.947,23.328 -69.277,27.927c-6.853,2.364 -30.165,9.376 -37.588,11.238c-11.197,2.81 -18.394,-5.694 -12.876,-12.334c4.191,-5.042 13.072,-4.297 28.9,-8.673c11.185,-3.092 24.664,-8.592 31.166,-11.481c10.908,-4.848 21.303,-8.679 28.643,-12.125c18.683,-8.772 30.619,-16.479 50.38,-27.816c12.998,-7.458 6.923,-9.357 6.531,-9.565c-3.815,-2.023 -25.002,-1.479 -44.748,-1.237c-20.844,0.255 -70.083,6.446 -94.12,7.569c-11.961,0.559 -9.714,-1.417 -11.991,11.59c-1.099,6.276 -6.728,32.452 -12.427,62.505c-4.076,21.495 -11.669,46.649 -14.419,58.459c-3.03,13.015 -6.984,24.27 -2.634,27.56c4.35,3.29 17.703,0.789 37.795,-1.058c19.809,-1.82 42.416,-7.829 62.591,-8.704c43.262,-1.875 36.724,25.884 11.129,28.307c-4.213,0.399 -92.07,10.404 -100.39,10.948c-22.755,1.487 -22.056,1.706 -26.827,10.853c-15.264,29.263 -18.949,41.892 -19.776,43.519c-9.842,19.37 -61.216,139.713 -67.188,149.769c-8.211,13.826 1.434,22.681 -6.452,30.409c-5.127,5.024 -16.939,4.748 -22.171,0.813c-6.328,-4.758 -6.535,-15.919 -1.095,-35.025Zm92.244,-560.205c-11.795,-12.617 -21.927,-24.099 -34.829,-30.172c-60.961,-28.693 -132.65,12.214 -172.158,62.766c-20.185,25.827 -27.727,54.78 -30.209,77.243c-1.954,17.68 -3.195,34.951 7.91,40.329c12.063,5.841 40.6,7.476 73.256,7.986c79.126,1.236 180.782,-10.392 180.782,-10.392c20.053,0.048 11.858,-30.838 7.742,-55.589c-3.305,-19.871 -7.417,-41.229 -14.923,-59.586c-5.683,-13.897 -8.016,-22.364 -17.571,-32.585Z" style="fill:#fff;"/><path d="M752.058,354.544c0.156,0.11 0.591,0.406 0.938,0.554c1.673,0.708 4.095,1.081 7.088,1.299c16.101,1.169 46.805,-2.928 73.655,-3.639c24.938,-0.66 52.17,-5.378 73.366,-0.377c17.551,4.141 26.565,10.833 29.403,18.214c2.792,7.262 0.116,15.768 -7.488,24.469c-10.05,11.501 -28.867,23.765 -52.071,34.443c-37.585,17.295 -56.205,23.435 -69.597,28.055c-6.906,2.382 -30.396,9.448 -37.877,11.324c-5.586,1.402 -10.36,0.421 -13.654,-1.641c-2.858,-1.79 -4.677,-4.413 -5.251,-7.259c-0.586,-2.901 0.068,-6.107 2.504,-9.038c2.1,-2.527 5.065,-4.034 9.227,-5.116c4.97,-1.291 11.949,-2.068 21.423,-4.688c11.011,-3.044 24.279,-8.463 30.68,-11.307c10.882,-4.837 21.254,-8.657 28.577,-12.095c18.591,-8.728 30.464,-16.403 50.127,-27.684c2.428,-1.393 4.272,-2.859 5.387,-3.838c-1.16,-0.209 -2.857,-0.311 -4.944,-0.434c-8.723,-0.515 -23.154,-0.195 -36.884,-0.026c-20.818,0.255 -69.994,6.443 -94,7.565c-3.378,0.158 -6.286,0.295 -7.3,0.343c-0.095,0.356 -0.226,0.885 -0.306,1.345c-0.285,1.639 -0.571,3.9 -1.118,7.024c-1.099,6.28 -6.732,32.477 -12.435,62.553c-4.086,21.546 -11.692,46.761 -14.449,58.6c-1.776,7.632 -3.904,14.639 -4.383,19.723c-0.103,1.094 -0.128,2.078 -0.015,2.93c0.075,0.564 0.11,1.065 0.473,1.34c0.493,0.373 1.219,0.528 2.11,0.667c1.397,0.219 3.099,0.265 5.088,0.21c6.662,-0.186 16.216,-1.527 28.178,-2.626c19.861,-1.825 42.53,-7.838 62.758,-8.715c14.036,-0.609 23.187,1.871 28.426,5.427c4.281,2.905 6.277,6.594 6.582,10.31c0.301,3.678 -1.088,7.513 -4.078,10.84c-3.881,4.319 -10.602,7.851 -19.321,8.677c-4.218,0.399 -92.163,10.411 -100.492,10.955c-6.7,0.438 -11.329,0.758 -14.653,1.243c-2.617,0.381 -4.243,0.77 -5.408,1.613c-1.65,1.194 -2.339,3.129 -3.905,6.133c-15.252,29.24 -18.933,41.86 -19.759,43.486c-9.856,19.396 -61.318,139.899 -67.298,149.969c-4.446,7.487 -2.914,13.385 -2.656,18.391c0.243,4.696 -0.347,8.802 -4.353,12.728c-3.13,3.067 -8.243,4.679 -13.429,4.761c-5.08,0.08 -10.144,-1.299 -13.273,-3.652c-3.197,-2.404 -5.276,-6.037 -6.037,-11.153c-0.955,-6.413 0.24,-15.506 3.684,-27.603l0.001,-0.007c2.792,-9.866 26.161,-62.386 38.442,-92.204c22.894,-55.583 34.787,-76.591 43.317,-97.818c0.594,-1.479 1.138,-2.7 1.534,-3.719c0.046,-0.12 0.093,-0.251 0.138,-0.382c-1.883,-0.545 -5.143,-0.826 -10.386,-1.336c-4.182,-0.407 -9.519,-0.898 -16.275,-1.621c-14.749,-1.577 -22.172,-3.979 -31.462,-11.271c-4.276,-3.281 -7.4,-7.832 -8.921,-12.983c-0.263,-0.756 -0.502,-1.569 -0.749,-2.417c-4.548,-15.609 2.246,-32.295 16.404,-40.29l3.726,-2.104c3.455,-1.951 7.508,-2.562 11.385,-1.715c0.002,0.001 0.003,0.001 0.004,0.001c4.725,1.032 8.615,4.371 10.35,8.885c1.736,4.514 1.084,9.598 -1.733,13.528l-0.069,0.097l-0.076,0.091c-2.392,2.899 -5.294,6.406 -8.865,10.587c-0.093,0.109 -0.195,0.264 -0.27,0.385c0.335,0.292 1.228,1.04 1.998,1.433c5.017,2.563 13.809,3.911 18.231,4.43c10.868,1.276 17.968,2.44 22.792,2.787c1.665,0.12 3.016,0.145 4.136,0.002c0.977,-0.124 1.69,-0.36 2.222,-0.954c0.703,-0.785 1.175,-1.923 1.715,-3.427c1.082,-3.017 2.169,-7.234 4.03,-13.005c4.723,-14.649 8.171,-26.277 12.991,-44.162c2.609,-9.68 8.291,-34.83 10.244,-44.888c2.314,-11.921 3.157,-21.67 4.863,-36.453c0.342,-2.959 0.638,-5.358 0.603,-7.281c-0.02,-1.053 -0.024,-1.894 -0.529,-2.471c-0.285,-0.324 -0.723,-0.505 -1.278,-0.679c-1.052,-0.329 -2.398,-0.502 -4.096,-0.589c-6.774,-0.345 -18.281,0.808 -37.471,2.465c-35.364,3.055 -83.239,6.462 -119.307,7.897c-10.694,0.426 -54.565,-0.339 -83.571,-2.555c-12.98,-0.991 -23.087,-2.403 -26.417,-3.97c-10.962,-5.16 -17.876,-8.365 -25.137,-21.511c-5.367,-9.715 -7.642,-23.917 -7.04,-40.329c0.877,-23.89 7.762,-52.565 19.222,-78.428c13.174,-29.73 40.859,-54.767 48.791,-62.38c21.645,-20.774 71.736,-44.585 98.958,-47.821c21.732,-2.584 46.777,-3.196 69.356,4.136c13.63,4.426 32.89,14.838 46.342,27.439c10.976,10.28 22.775,29.438 32.164,49.624c4.878,10.488 12.395,29.622 15.842,46.957c1.612,8.104 9.905,47.944 10.611,73.726Zm-163.409,425.247c-5.44,19.106 -5.233,30.267 1.095,35.025c5.232,3.935 17.044,4.211 22.171,-0.813c7.886,-7.728 -1.759,-16.583 6.452,-30.409c5.972,-10.056 57.346,-130.399 67.188,-149.769c0.827,-1.627 4.512,-14.256 19.776,-43.519c4.771,-9.147 4.072,-9.366 26.827,-10.853c8.32,-0.544 96.177,-10.549 100.39,-10.948c25.595,-2.423 32.133,-30.182 -11.129,-28.307c-20.175,0.875 -42.782,6.884 -62.591,8.704c-20.092,1.847 -33.445,4.348 -37.795,1.058c-4.35,-3.29 -0.396,-14.545 2.634,-27.56c2.75,-11.81 10.343,-36.964 14.419,-58.459c5.699,-30.053 11.328,-56.229 12.427,-62.505c2.277,-13.007 0.03,-11.031 11.991,-11.59c24.037,-1.123 73.276,-7.314 94.12,-7.569c19.746,-0.242 40.933,-0.786 44.748,1.237c0.392,0.208 6.467,2.107 -6.531,9.565c-19.761,11.337 -31.697,19.044 -50.38,27.816c-7.34,3.446 -17.735,7.277 -28.643,12.125c-6.502,2.889 -19.981,8.389 -31.166,11.481c-15.828,4.376 -24.709,3.631 -28.9,8.673c-5.518,6.64 1.679,15.144 12.876,12.334c7.423,-1.862 30.735,-8.874 37.588,-11.238c13.33,-4.599 31.865,-10.711 69.277,-27.927c53.961,-24.832 83.892,-58.047 30.812,-70.572c-20.938,-4.941 -47.839,-0.183 -72.474,0.469c-38.536,1.02 -84.976,8.932 -85.25,-1.462c-0.674,-25.574 -8.948,-65.226 -10.549,-73.281c-3.39,-17.044 -10.788,-35.855 -15.585,-46.167c-9.178,-19.734 -20.657,-38.501 -31.387,-48.552c-13.073,-12.245 -31.79,-22.366 -45.037,-26.668c-22.094,-7.174 -46.603,-6.518 -67.869,-3.99c-26.674,3.171 -75.748,26.52 -96.957,46.876c-7.798,7.483 -35.068,32.053 -48.018,61.278c-18.789,42.402 -25.126,92.476 -12.319,115.662c6.792,12.295 13.32,15.218 23.573,20.044c10.578,4.98 93.162,6.801 108.365,6.196c36.02,-1.433 83.83,-4.836 119.147,-7.886c48.583,-4.197 48.548,-5.055 46.53,12.423c-1.719,14.891 -2.573,24.711 -4.904,36.718c-1.963,10.112 -7.677,35.398 -10.3,45.131c-4.838,17.951 -8.298,29.62 -13.039,44.324c-7.818,24.248 -2.143,21.269 -38.616,16.987c-7.854,-0.922 -28.594,-4.483 -22.201,-11.969c3.555,-4.163 6.445,-7.655 8.827,-10.541c2.135,-2.979 2.628,-6.831 1.313,-10.251c-1.314,-3.42 -4.261,-5.949 -7.842,-6.731l-0.004,-0.001c-3.041,-0.664 -6.22,-0.186 -8.929,1.344l-3.726,2.104c-12.75,7.2 -18.869,22.227 -14.773,36.284c0.237,0.812 0.463,1.59 0.717,2.311c1.31,4.494 4.018,8.453 7.732,11.303c8.775,6.891 15.8,9.081 29.709,10.568c33.713,3.604 32.02,1.443 27.851,11.82c-8.533,21.233 -20.428,42.247 -43.328,97.845c-12.236,29.706 -35.542,82.023 -38.313,91.832Zm92.244,-560.205c9.555,10.221 11.888,18.688 17.571,32.585c7.506,18.357 11.618,39.715 14.923,59.586c4.116,24.751 12.311,55.637 -7.742,55.589c0,0 -101.656,11.628 -180.782,10.392c-32.656,-0.51 -61.193,-2.145 -73.256,-7.986c-11.105,-5.378 -9.864,-22.649 -7.91,-40.329c2.482,-22.463 10.024,-51.416 30.209,-77.243c39.508,-50.552 111.197,-91.459 172.158,-62.766c12.902,6.073 23.034,17.555 34.829,30.172Zm-2.545,2.378c-11.46,-12.259 -21.231,-23.498 -33.768,-29.399c-59.524,-28.018 -129.352,12.398 -167.93,61.76c-19.721,25.234 -27.066,53.533 -29.492,75.48c-0.945,8.562 -1.751,17.023 -0.944,23.995c0.679,5.859 2.392,10.629 6.911,12.817c11.819,5.723 39.798,7.139 71.793,7.639c78.928,1.233 180.331,-10.37 180.331,-10.37l0.202,-0.023l0.202,0.001c2.311,0.005 4.123,-0.477 5.488,-1.502c2.177,-1.637 3.146,-4.467 3.629,-7.917c1.538,-10.989 -2.408,-27.625 -4.819,-42.117c-3.263,-19.619 -7.299,-40.714 -14.711,-58.839c-5.49,-13.426 -7.661,-21.65 -16.892,-31.525Z" style="fill:#fff9f9;"/></g><g><path d="M963.993,1008.48l-0.45,0.511c-0,0 20.326,-35.13 20.324,-35.126c0.889,-1.747 1.786,-3.467 2.369,-4.579c-0.649,-0.225 -1.463,-0.491 -2.266,-0.708c-3.41,-0.923 -8.635,-2.168 -16.291,-4.456c-13.268,-3.966 -28.883,-10.421 -36.326,-19.663c-6.046,-7.507 -8.702,-14.967 -8.697,-22.203c0.006,-7.231 2.685,-14.298 7.613,-21.041c9.186,-12.568 26.43,-24.124 47.679,-33.658c7.629,-3.423 15.548,-6.195 26.715,-8.497c7.645,-1.576 23.781,-4.928 32.118,-6.541c4.301,-0.833 8.118,-1.715 10.821,-2.678c1.162,-0.414 2.081,-0.699 2.488,-1.154c13.024,-14.576 26.307,-52.011 40.051,-80.199c3.379,-6.929 5.79,-15.465 8.905,-22.319c3.364,-7.404 14.077,-41.028 19.346,-65.198c2.149,-9.858 3.483,-18.047 2.759,-21.93c-1.637,-8.774 -2.412,-19.495 -4.795,-34.508c-7.178,-45.221 -11.495,-104.338 -4.381,-136.148c1.625,-7.264 3.866,-13.172 6.709,-17.332c3.346,-4.896 7.561,-7.555 12.557,-7.78c10.793,-0.487 18.488,7.964 23.167,22.084c9.614,29.011 7.431,82.58 6.073,111.974c-0.002,0.027 -0.003,0.053 -0.005,0.08c-0.615,8.864 -7.084,40.1 -9.734,64.737c-1.881,17.489 1.549,35.869 1.684,36.584c8.828,42.539 14.891,81.107 22.295,120.204c5.868,-0.275 12.341,-2.412 18.556,-3.958c10.074,-2.506 19.832,-5.241 30.169,-7.957c17.716,-4.653 139.421,-39.932 175.862,-52.895c8.279,-2.946 17.813,-7.555 24.85,-8.365c3.716,-0.427 6.874,0.152 9.232,1.835c1.713,1.224 3.083,3.032 3.886,5.661c0.735,2.404 0.28,5.066 -1.633,7.784c-1.986,2.822 -5.81,5.897 -11.13,8.836c-7.477,4.13 -24.371,11.709 -32.088,13.89l-50.112,16.304c-0.028,0.009 -0.056,0.018 -0.084,0.026l-73.59,21.888l-87.977,27.332c0.147,1.254 0.379,3.01 0.694,4.738c3.241,17.783 14.54,61.969 28.004,98.627c11.927,32.475 20.515,44.338 25.23,52.867c11.099,20.074 26.581,33.223 36.458,40.214c0.364,0.258 0.667,0.576 0.902,0.936c2.624,1.701 23.533,15.223 28.538,17.235c8.107,3.257 16.449,5.574 25.067,8.355c9.763,3.15 20.124,3.263 23.061,2.397c2.036,-0.599 3.704,-1.29 4.959,-2.132c0.825,-0.553 1.451,-1.13 1.734,-1.852c0.243,-0.618 0.172,-1.309 -0.074,-2.08c-0.415,-1.296 -1.292,-2.7 -2.571,-4.265c-4.139,-5.064 -12.128,-11.262 -24.363,-18.855c0,-0 -16.413,-8.823 -16.412,-8.822c-1.75,-0.792 -23.438,-10.622 -27.34,-13.129c-5.445,-3.497 -6.753,-7.074 -6.486,-9.543c0.241,-2.236 1.666,-4.245 4.159,-5.568c3.832,-2.034 10.673,-2.354 15.843,0.144l32.909,13.858c0.114,0.048 0.226,0.102 0.334,0.162c-0,0 24.36,13.496 32.767,19.915c5.678,4.336 10.489,9.272 11.584,10.336c0.031,0.03 0.074,0.071 0.074,0.071c-0,-0 -0.009,-0.007 -0.025,-0.019c0.254,0.226 0.591,0.594 0.907,1.156c0.695,1.235 3.901,7.243 3.901,7.243c0.085,0.159 0.157,0.325 0.216,0.495c0,0 3.122,9.055 0.118,17.531c-1.468,4.141 -4.759,7.718 -8.274,10.444c-4.885,3.788 -10.077,5.928 -10.077,5.928c-0.165,0.069 -0.334,0.124 -0.507,0.166c-3.546,0.863 -12.678,3.808 -22.151,3.716c-10.894,-0.107 -22.05,-3.036 -23.369,-3.393c-13.205,-2.634 -26.987,-7.785 -41.269,-15.177c-0.071,-0.037 -0.142,-0.077 -0.211,-0.119c-10.668,-6.499 -23.039,-14.065 -36.197,-27.12c-3.523,-2.954 -13.823,-14.886 -23.103,-28.039c-10.503,-14.886 -19.833,-34.032 -24.656,-43.906c-0.954,-1.954 -13.395,-32.152 -20.581,-62.266c-6.087,-25.507 -11.959,-50.851 -13.217,-63.031c-12.278,2.423 -37.124,7.57 -65.579,15.364c-0.095,0.026 -0.191,0.048 -0.288,0.066c0,0 -22.816,4.212 -22.816,4.212l-33.708,61.653l-5.288,11.728l19.698,4.056c0.258,0.053 0.508,0.135 0.747,0.244c0.08,0.021 0.199,0.052 0.292,0.073c4.734,1.091 24.572,3.805 34.078,8.607c6.392,3.23 8.694,12.453 3.882,18.679c-1.926,2.492 -4.999,4.555 -9.524,5.344c-0.869,0.152 -3.106,0.089 -6.122,-0.242c-10.213,-1.12 -31.039,-4.741 -31.039,-4.741c-0.041,-0.007 -0.082,-0.015 -0.123,-0.023l-27.646,-5.845l-42.729,74.116c-0.016,0.028 -0.032,0.056 -0.049,0.083l-14.022,22.834c-0.052,0.126 -0.112,0.254 -0.18,0.386c-0.991,1.911 -8.597,14.122 -14.667,21.126c-6.244,7.205 -11.616,10.821 -14.525,12.746c-2.776,1.838 -6.536,2.485 -10.041,1.797c-3.618,-0.71 -6.907,-2.808 -8.675,-6.157c-1.446,-2.74 -1.949,-6.408 -0.402,-11.021c1.036,-3.091 3.671,-5.794 7.239,-8.597c4.188,-3.29 9.783,-6.948 14.117,-13.062c8.063,-11.372 28.476,-51.297 32.804,-59.411c0.517,-0.969 0.992,-1.65 1.321,-2.07Zm-10.673,66.267c0.705,0.139 1.804,0.128 2.916,-0.958c-0.796,0.778 -1.879,1.102 -2.916,0.958Zm13.237,-64.011c-0.444,0.338 -24.831,48.522 -33.848,61.24c-7.599,10.717 -18.762,14.39 -20.895,20.752c-3.876,11.558 8.016,15.259 13.894,11.369c2.766,-1.831 7.876,-5.27 13.815,-12.123c6.53,-7.534 14.904,-21.286 14.279,-20.676l14.254,-23.211l43.992,-76.307l30.12,6.367c0,0 32.312,5.621 35.965,4.983c11.607,-2.025 11.232,-14.168 4.67,-17.483c-10.31,-5.21 -33.1,-7.802 -34.248,-8.622l-23.959,-4.933l7.131,-15.816l34.567,-63.223l24.445,-4.513c32.027,-8.773 59.499,-14.204 69.736,-16.187c-0.094,9.369 6.536,37.776 13.368,66.404c7.102,29.764 19.38,59.615 20.323,61.546c4.769,9.765 13.985,28.706 24.372,43.427c9.164,12.99 19.305,24.795 22.595,27.46c12.967,12.892 25.165,20.332 35.671,26.733c14.006,7.249 27.516,12.309 40.462,14.877c-0,0 11.447,3.194 22.609,3.303c9.109,0.089 17.883,-2.787 21.293,-3.617c-0,-0 13.268,-5.486 16.399,-14.318c2.609,-7.36 -0.124,-15.223 -0.124,-15.223c-0,-0 -3.92,-7.347 -3.993,-7.393c-0.255,-0.159 -5.348,-5.576 -11.489,-10.265c-8.294,-6.334 -32.339,-19.636 -32.339,-19.636l-32.996,-13.894c-8.476,-4.17 -22.679,0.846 -10.195,8.864c3.999,2.568 27.001,12.934 27.001,12.934l16.614,8.931c31.85,19.753 35.777,30.761 19.554,35.541c-3.196,0.942 -14.489,1.004 -25.114,-2.424c-8.698,-2.806 -17.115,-5.15 -25.296,-8.438c-6.148,-2.47 -31.594,-18.287 -30.154,-18.559c-10.16,-7.192 -26.078,-20.723 -37.494,-41.372c-4.758,-8.606 -13.415,-20.581 -25.451,-53.351c-16.928,-46.089 -30.444,-104.012 -28.996,-107.105l90.531,-28.125l73.61,-21.894l50.178,-16.325c7.507,-2.105 24.087,-9.558 31.415,-13.606c7.893,-4.36 12.248,-8.852 11.117,-12.553c-3.385,-11.076 -20.086,-1.63 -33.471,3.132c-36.499,12.985 -158.4,48.322 -176.144,52.983c-10.352,2.719 -20.125,5.458 -30.213,7.968c-7.526,1.872 -15.43,4.472 -22.285,4.039c-7.646,-40.053 -13.785,-79.438 -22.823,-122.987c-0,0 -3.703,-19.294 -1.731,-37.634c2.645,-24.587 9.109,-55.759 9.723,-64.606c1.919,-41.518 5.715,-131.83 -25.604,-130.418c-26.3,1.185 -21.759,93.253 -11.603,157.235c2.377,14.972 3.147,25.665 4.78,34.415c2.564,13.747 -17.5,78.517 -22.359,89.208c-3.127,6.881 -5.552,15.448 -8.944,22.404c-13.89,28.486 -27.424,66.263 -40.585,80.993c-1.65,1.846 -7.737,3.478 -15.245,4.931c-8.326,1.611 -24.441,4.96 -32.075,6.533c-10.865,2.24 -18.571,4.934 -25.994,8.264c-41.201,18.486 -67.143,44.428 -45.307,71.54c7.072,8.781 22.003,14.741 34.61,18.51c25.383,7.586 23.896,3.638 18.255,14.739l-20.374,35.212Z" style="fill:#fff9f9;"/><path d="M966.557,1010.74l20.374,-35.212c5.641,-11.101 7.128,-7.153 -18.255,-14.739c-12.607,-3.769 -27.538,-9.729 -34.61,-18.51c-21.836,-27.112 4.106,-53.054 45.307,-71.54c7.423,-3.33 15.129,-6.024 25.994,-8.264c7.634,-1.573 23.749,-4.922 32.075,-6.533c7.508,-1.453 13.595,-3.085 15.245,-4.931c13.161,-14.73 26.695,-52.507 40.585,-80.993c3.392,-6.956 5.817,-15.523 8.944,-22.404c4.859,-10.691 24.923,-75.461 22.359,-89.208c-1.633,-8.75 -2.403,-19.443 -4.78,-34.415c-10.156,-63.982 -14.697,-156.05 11.603,-157.235c31.319,-1.412 27.523,88.9 25.604,130.418c-0.614,8.847 -7.078,40.019 -9.723,64.606c-1.972,18.34 1.731,37.634 1.731,37.634c9.038,43.549 15.177,82.934 22.823,122.987c6.855,0.433 14.759,-2.167 22.285,-4.039c10.088,-2.51 19.861,-5.249 30.213,-7.968c17.744,-4.661 139.645,-39.998 176.144,-52.983c13.385,-4.762 30.086,-14.208 33.471,-3.132c1.131,3.701 -3.224,8.193 -11.117,12.553c-7.328,4.048 -23.908,11.501 -31.415,13.606l-50.178,16.325l-73.61,21.894l-90.531,28.125c-1.448,3.093 12.068,61.016 28.996,107.105c12.036,32.77 20.693,44.745 25.451,53.351c11.416,20.649 27.334,34.18 37.494,41.372c-1.44,0.272 24.006,16.089 30.154,18.559c8.181,3.288 16.598,5.632 25.296,8.438c10.625,3.428 21.918,3.366 25.114,2.424c16.223,-4.78 12.296,-15.788 -19.554,-35.541l-16.614,-8.931c0,0 -23.002,-10.366 -27.001,-12.934c-12.484,-8.018 1.719,-13.034 10.195,-8.864l32.996,13.894c0,0 24.045,13.302 32.339,19.636c6.141,4.689 11.234,10.106 11.489,10.265c0.073,0.046 3.993,7.393 3.993,7.393c-0,-0 2.733,7.863 0.124,15.223c-3.131,8.832 -16.399,14.318 -16.399,14.318c-3.41,0.83 -12.184,3.706 -21.293,3.617c-11.162,-0.109 -22.609,-3.303 -22.609,-3.303c-12.946,-2.568 -26.456,-7.628 -40.462,-14.877c-10.506,-6.401 -22.704,-13.841 -35.671,-26.733c-3.29,-2.665 -13.431,-14.47 -22.595,-27.46c-10.387,-14.721 -19.603,-33.662 -24.372,-43.427c-0.943,-1.931 -13.221,-31.782 -20.323,-61.546c-6.832,-28.628 -13.462,-57.035 -13.368,-66.404c-10.237,1.983 -37.709,7.414 -69.736,16.187l-24.445,4.513l-34.567,63.223l-7.131,15.816l23.959,4.933c1.148,0.82 23.938,3.412 34.248,8.622c6.562,3.315 6.937,15.458 -4.67,17.483c-3.653,0.638 -35.965,-4.983 -35.965,-4.983l-30.12,-6.367l-43.992,76.307l-14.254,23.211c0.625,-0.61 -7.749,13.142 -14.279,20.676c-5.939,6.853 -11.049,10.292 -13.815,12.123c-5.878,3.89 -17.77,0.189 -13.894,-11.369c2.133,-6.362 13.296,-10.035 20.895,-20.752c9.017,-12.718 33.404,-60.902 33.848,-61.24Zm70.321,-126.697c4.242,-8.944 -20.76,-0.231 -35.226,3.691c-34.096,9.243 -70.548,32.923 -47.784,43.853c8.865,4.256 21.795,10.014 32.408,12.948c15.81,4.371 11.949,5.887 15.376,0c10.157,-17.445 30.933,-51.439 35.226,-60.492Zm114.529,-53.019c1.726,-0.428 2.89,-2.04 2.751,-3.813c-1.304,-8.994 -6.297,-28.348 -11.428,-57.488c-1.231,-6.989 -3.599,-44.046 -10.087,-43.591c-2.221,0.156 -3.42,5.419 -4.743,9.539c-0.178,0.555 -4.222,15.128 -6.358,21.059c-6.647,18.454 -13.9,32.823 -19.115,46.724c-7.037,18.757 -15.811,28.084 -17.745,39.248c-0.835,4.82 11.111,2.412 26.122,-1.252c14.206,-3.468 29.609,-7.662 40.603,-10.426Zm-12.448,-251.077c0.615,-6.072 0.399,-45.219 -0.833,-67.976c-0.315,-5.823 -1.473,-9.494 -5.745,-8.627c-5.222,1.061 -2.601,22.412 -2.126,44.426c0.294,13.62 1.348,27.346 2.682,34c1.062,5.299 5.322,5.085 6.022,-1.823Z" style="fill:#fff;"/></g><g><path d="M109.471,734.277l-0.451,0.511c-0,0 20.326,-35.13 20.324,-35.126c0.889,-1.747 1.786,-3.467 2.37,-4.58c-0.649,-0.224 -1.464,-0.49 -2.267,-0.707c-3.41,-0.923 -8.635,-2.168 -16.291,-4.457c-13.268,-3.966 -28.883,-10.42 -36.326,-19.662c-6.046,-7.508 -8.702,-14.967 -8.696,-22.204c0.005,-7.231 2.684,-14.297 7.612,-21.04c9.187,-12.569 26.43,-24.124 47.679,-33.658c7.629,-3.423 15.549,-6.195 26.716,-8.497c7.644,-1.576 23.78,-4.928 32.117,-6.542c4.302,-0.832 8.118,-1.714 10.821,-2.677c1.163,-0.414 2.081,-0.699 2.488,-1.154c13.024,-14.577 26.307,-52.011 40.051,-80.199c3.379,-6.929 5.79,-15.465 8.905,-22.319c3.364,-7.404 14.078,-41.029 19.346,-65.198c2.149,-9.858 3.484,-18.047 2.759,-21.93c-1.637,-8.775 -2.412,-19.495 -4.795,-34.509c-7.178,-45.22 -11.495,-104.338 -4.381,-136.147c1.625,-7.265 3.866,-13.172 6.709,-17.332c3.347,-4.896 7.561,-7.555 12.557,-7.78c10.793,-0.487 18.488,7.964 23.168,22.084c9.613,29.01 7.43,82.58 6.072,111.974c-0.001,0.026 -0.003,0.053 -0.005,0.08c-0.615,8.864 -7.084,40.1 -9.734,64.737c-1.881,17.489 1.549,35.869 1.684,36.584c8.828,42.538 14.892,81.107 22.295,120.204c5.868,-0.275 12.341,-2.412 18.556,-3.958c10.074,-2.506 19.832,-5.241 30.17,-7.957c17.715,-4.654 139.42,-39.932 175.861,-52.896c8.279,-2.945 17.814,-7.554 24.851,-8.364c3.715,-0.427 6.873,0.152 9.231,1.835c1.714,1.223 3.083,3.032 3.887,5.66c0.734,2.404 0.279,5.067 -1.634,7.785c-1.986,2.822 -5.81,5.897 -11.13,8.835c-7.477,4.131 -24.371,11.71 -32.088,13.891l-50.112,16.304c-0.028,0.009 -0.056,0.018 -0.084,0.026l-73.59,21.888l-87.976,27.331c0.146,1.254 0.378,3.011 0.693,4.739c3.241,17.783 14.54,61.969 28.004,98.627c11.928,32.475 20.515,44.338 25.23,52.866c11.099,20.075 26.581,33.224 36.458,40.215c0.364,0.257 0.668,0.576 0.903,0.935c2.623,1.702 23.532,15.224 28.538,17.235c8.106,3.258 16.448,5.575 25.066,8.356c9.764,3.15 20.124,3.263 23.061,2.397c2.036,-0.6 3.704,-1.29 4.959,-2.132c0.826,-0.553 1.451,-1.13 1.734,-1.852c0.243,-0.618 0.173,-1.309 -0.074,-2.08c-0.415,-1.296 -1.291,-2.7 -2.571,-4.265c-4.138,-5.064 -12.128,-11.262 -24.362,-18.855c-0,-0 -16.414,-8.823 -16.412,-8.823c-1.75,-0.792 -23.438,-10.621 -27.341,-13.128c-5.445,-3.497 -6.752,-7.074 -6.486,-9.543c0.242,-2.237 1.667,-4.245 4.159,-5.568c3.833,-2.035 10.673,-2.354 15.843,0.144l32.909,13.858c0.114,0.048 0.226,0.102 0.334,0.162c0,-0 24.361,13.496 32.767,19.915c5.678,4.335 10.489,9.271 11.584,10.336c0.031,0.03 0.074,0.071 0.074,0.071c0,-0 -0.009,-0.007 -0.025,-0.019c0.255,0.226 0.591,0.594 0.907,1.156c0.695,1.235 3.901,7.242 3.901,7.242c0.085,0.16 0.157,0.326 0.217,0.496c-0,0 3.122,9.055 0.117,17.531c-1.468,4.141 -4.759,7.718 -8.273,10.443c-4.886,3.789 -10.078,5.929 -10.078,5.929c-0.165,0.068 -0.334,0.124 -0.507,0.166c-3.546,0.863 -12.678,3.808 -22.15,3.716c-10.895,-0.107 -22.051,-3.036 -23.37,-3.393c-13.205,-2.634 -26.987,-7.786 -41.268,-15.178c-0.072,-0.037 -0.143,-0.076 -0.211,-0.118c-10.669,-6.5 -23.039,-14.065 -36.197,-27.12c-3.524,-2.954 -13.824,-14.886 -23.104,-28.039c-10.503,-14.886 -19.833,-34.032 -24.656,-43.907c-0.954,-1.953 -13.395,-32.151 -20.581,-62.265c-6.086,-25.507 -11.959,-50.852 -13.217,-63.032c-12.278,2.424 -37.124,7.571 -65.578,15.365c-0.095,0.026 -0.192,0.048 -0.288,0.066c-0,-0 -22.816,4.212 -22.816,4.212l-33.709,61.652l-5.288,11.729l19.698,4.056c0.258,0.053 0.509,0.135 0.747,0.244c0.08,0.021 0.199,0.052 0.292,0.073c4.734,1.091 24.573,3.804 34.078,8.607c6.393,3.23 8.694,12.453 3.882,18.679c-1.925,2.491 -4.999,4.554 -9.524,5.344c-0.869,0.152 -3.106,0.088 -6.122,-0.242c-10.213,-1.121 -31.039,-4.741 -31.039,-4.741c-0.041,-0.007 -0.082,-0.015 -0.123,-0.024l-27.645,-5.844l-42.73,74.116c-0.016,0.028 -0.032,0.056 -0.049,0.083l-14.022,22.834c-0.052,0.125 -0.111,0.254 -0.18,0.385c-0.991,1.912 -8.597,14.123 -14.667,21.127c-6.244,7.205 -11.616,10.82 -14.525,12.746c-2.776,1.837 -6.536,2.485 -10.041,1.797c-3.617,-0.71 -6.907,-2.808 -8.674,-6.157c-1.447,-2.741 -1.95,-6.408 -0.403,-11.021c1.037,-3.091 3.671,-5.795 7.239,-8.597c4.188,-3.29 9.783,-6.949 14.117,-13.062c8.063,-11.372 28.477,-51.297 32.804,-59.411c0.517,-0.969 0.992,-1.65 1.322,-2.07Zm-10.674,66.267c0.705,0.139 1.804,0.128 2.916,-0.958c-0.796,0.777 -1.879,1.102 -2.916,0.958Zm13.238,-64.012c-0.445,0.338 -24.832,48.523 -33.849,61.24c-7.599,10.718 -18.762,14.391 -20.895,20.753c-3.876,11.558 8.016,15.259 13.894,11.368c2.767,-1.831 7.876,-5.269 13.815,-12.122c6.53,-7.535 14.904,-21.286 14.28,-20.676l14.253,-23.211l43.993,-76.307l30.119,6.367c0,-0 32.312,5.621 35.965,4.983c11.607,-2.025 11.232,-14.168 4.671,-17.484c-10.311,-5.209 -33.101,-7.801 -34.249,-8.621l-23.959,-4.933l7.131,-15.816l34.567,-63.224l24.445,-4.512c32.027,-8.773 59.499,-14.204 69.736,-16.187c-0.093,9.369 6.536,37.776 13.368,66.404c7.102,29.763 19.38,59.615 20.323,61.546c4.769,9.765 13.985,28.705 24.372,43.427c9.164,12.99 19.305,24.795 22.595,27.46c12.967,12.892 25.165,20.332 35.671,26.733c14.006,7.249 27.516,12.309 40.462,14.877c0,0 11.447,3.194 22.61,3.303c9.108,0.089 17.882,-2.787 21.292,-3.617c0,-0 13.269,-5.486 16.399,-14.318c2.61,-7.36 -0.124,-15.223 -0.124,-15.223c0,-0 -3.919,-7.347 -3.993,-7.393c-0.255,-0.159 -5.348,-5.576 -11.488,-10.265c-8.295,-6.334 -32.34,-19.636 -32.34,-19.636l-32.996,-13.894c-8.476,-4.17 -22.679,0.846 -10.195,8.864c3.999,2.568 27.002,12.934 27.002,12.934l16.613,8.931c31.85,19.752 35.778,30.761 19.555,35.541c-3.196,0.942 -14.49,1.004 -25.115,-2.424c-8.698,-2.806 -17.114,-5.15 -25.296,-8.438c-6.148,-2.47 -31.593,-18.287 -30.154,-18.559c-10.16,-7.192 -26.077,-20.723 -37.494,-41.373c-4.758,-8.605 -13.415,-20.58 -25.451,-53.35c-16.928,-46.09 -30.444,-104.012 -28.996,-107.105l90.531,-28.125l73.61,-21.894l50.178,-16.325c7.507,-2.105 24.087,-9.558 31.415,-13.606c7.893,-4.36 12.248,-8.852 11.117,-12.554c-3.385,-11.075 -20.086,-1.629 -33.471,3.133c-36.499,12.984 -158.4,48.321 -176.144,52.983c-10.352,2.719 -20.125,5.458 -30.213,7.968c-7.526,1.872 -15.429,4.472 -22.284,4.039c-7.647,-40.053 -13.786,-79.438 -22.824,-122.987c0,0 -3.703,-19.294 -1.73,-37.635c2.644,-24.587 9.108,-55.759 9.722,-64.605c1.919,-41.518 5.715,-131.83 -25.604,-130.418c-26.3,1.185 -21.759,93.253 -11.602,157.234c2.376,14.973 3.147,25.665 4.779,34.416c2.564,13.747 -17.5,78.517 -22.359,89.208c-3.126,6.881 -5.552,15.448 -8.944,22.404c-13.89,28.486 -27.423,66.263 -40.585,80.993c-1.649,1.846 -7.737,3.478 -15.244,4.931c-8.327,1.611 -24.442,4.959 -32.076,6.533c-10.865,2.239 -18.571,4.933 -25.993,8.264c-41.202,18.486 -67.144,44.428 -45.308,71.539c7.072,8.782 22.003,14.742 34.611,18.51c25.382,7.587 23.895,3.639 18.254,14.74l-20.373,35.211Z" style="fill:#fff9f9;"/><path d="M112.035,736.532l20.373,-35.211c5.641,-11.101 7.128,-7.153 -18.254,-14.74c-12.608,-3.768 -27.539,-9.728 -34.611,-18.51c-21.836,-27.111 4.106,-53.053 45.308,-71.539c7.422,-3.331 15.128,-6.025 25.993,-8.264c7.634,-1.574 23.749,-4.922 32.076,-6.533c7.507,-1.453 13.595,-3.085 15.244,-4.931c13.162,-14.73 26.695,-52.507 40.585,-80.993c3.392,-6.956 5.818,-15.523 8.944,-22.404c4.859,-10.691 24.923,-75.461 22.359,-89.208c-1.632,-8.751 -2.403,-19.443 -4.779,-34.416c-10.157,-63.981 -14.698,-156.049 11.602,-157.234c31.319,-1.412 27.523,88.9 25.604,130.418c-0.614,8.846 -7.078,40.018 -9.722,64.605c-1.973,18.341 1.73,37.635 1.73,37.635c9.038,43.549 15.177,82.934 22.824,122.987c6.855,0.433 14.758,-2.167 22.284,-4.039c10.088,-2.51 19.861,-5.249 30.213,-7.968c17.744,-4.662 139.645,-39.999 176.144,-52.983c13.385,-4.762 30.086,-14.208 33.471,-3.133c1.131,3.702 -3.224,8.194 -11.117,12.554c-7.328,4.048 -23.908,11.501 -31.415,13.606l-50.178,16.325l-73.61,21.894l-90.531,28.125c-1.448,3.093 12.068,61.015 28.996,107.105c12.036,32.77 20.693,44.745 25.451,53.35c11.417,20.65 27.334,34.181 37.494,41.373c-1.439,0.272 24.006,16.089 30.154,18.559c8.182,3.288 16.598,5.632 25.296,8.438c10.625,3.428 21.919,3.366 25.115,2.424c16.223,-4.78 12.295,-15.789 -19.555,-35.541l-16.613,-8.931c-0,-0 -23.003,-10.366 -27.002,-12.934c-12.484,-8.018 1.719,-13.034 10.195,-8.864l32.996,13.894c0,0 24.045,13.302 32.34,19.636c6.14,4.689 11.233,10.106 11.488,10.265c0.074,0.046 3.993,7.393 3.993,7.393c0,-0 2.734,7.863 0.124,15.223c-3.13,8.832 -16.399,14.318 -16.399,14.318c-3.41,0.83 -12.184,3.706 -21.292,3.617c-11.163,-0.109 -22.61,-3.303 -22.61,-3.303c-12.946,-2.568 -26.456,-7.628 -40.462,-14.877c-10.506,-6.401 -22.704,-13.841 -35.671,-26.733c-3.29,-2.665 -13.431,-14.47 -22.595,-27.46c-10.387,-14.722 -19.603,-33.662 -24.372,-43.427c-0.943,-1.931 -13.221,-31.783 -20.323,-61.546c-6.832,-28.628 -13.461,-57.035 -13.368,-66.404c-10.237,1.983 -37.709,7.414 -69.736,16.187l-24.445,4.512l-34.567,63.224l-7.131,15.816l23.959,4.933c1.148,0.82 23.938,3.412 34.249,8.621c6.561,3.316 6.936,15.459 -4.671,17.484c-3.653,0.638 -35.965,-4.983 -35.965,-4.983l-30.119,-6.367l-43.993,76.307l-14.253,23.211c0.624,-0.61 -7.75,13.141 -14.28,20.676c-5.939,6.853 -11.048,10.291 -13.815,12.122c-5.878,3.891 -17.77,0.19 -13.894,-11.368c2.133,-6.362 13.296,-10.035 20.895,-20.753c9.017,-12.717 33.404,-60.902 33.849,-61.24Zm70.32,-126.696c4.243,-8.944 -20.76,-0.231 -35.225,3.691c-34.097,9.243 -70.549,32.923 -47.784,43.852c8.864,4.256 21.794,10.015 32.407,12.949c15.811,4.371 11.95,5.886 15.377,0c10.156,-17.445 30.932,-51.439 35.225,-60.492Zm114.53,-53.02c1.725,-0.427 2.889,-2.04 2.751,-3.812c-1.305,-8.994 -6.298,-28.348 -11.429,-57.489c-1.23,-6.988 -3.599,-44.045 -10.087,-43.59c-2.221,0.155 -3.42,5.419 -4.742,9.539c-0.178,0.555 -4.223,15.128 -6.359,21.059c-6.646,18.454 -13.9,32.822 -19.115,46.724c-7.036,18.757 -15.811,28.083 -17.745,39.248c-0.835,4.82 11.112,2.412 26.122,-1.253c14.206,-3.467 29.609,-7.661 40.604,-10.426Zm-12.449,-251.076c0.615,-6.072 0.399,-45.219 -0.832,-67.977c-0.315,-5.822 -1.474,-9.494 -5.746,-8.626c-5.221,1.06 -2.6,22.412 -2.126,44.426c0.294,13.62 1.348,27.345 2.682,34c1.062,5.299 5.322,5.085 6.022,-1.823Z" style="fill:#fff;"/><path d="M574.084,793.403c2.771,-9.809 26.077,-62.126 38.313,-91.832c22.9,-55.598 34.795,-76.612 43.327,-97.845c4.17,-10.377 5.863,-8.216 -27.85,-11.82c-13.91,-1.487 -20.934,-3.677 -29.709,-10.568c-3.714,-2.85 -6.422,-6.809 -7.732,-11.303c-0.254,-0.721 -0.48,-1.499 -0.717,-2.311c-4.096,-14.057 2.022,-29.084 14.773,-36.284l3.725,-2.104c2.71,-1.53 5.889,-2.008 8.93,-1.344l0.004,0.001c3.581,0.782 6.527,3.311 7.842,6.731c1.315,3.42 0.822,7.272 -1.313,10.251c-2.382,2.886 -5.272,6.378 -8.827,10.541c-6.393,7.486 14.347,11.047 22.201,11.969c36.473,4.282 30.798,7.261 38.616,-16.987c4.74,-14.704 8.201,-26.373 13.039,-44.324c2.623,-9.733 8.337,-35.019 10.3,-45.132c2.331,-12.006 3.185,-21.826 4.904,-36.717c2.018,-17.478 2.053,-16.62 -46.53,-12.423c-35.317,3.05 -83.127,6.453 -119.147,7.886c-15.203,0.605 -97.787,-1.217 -108.365,-6.196c-10.253,-4.826 -16.781,-7.749 -23.573,-20.044c-12.807,-23.186 -6.47,-73.26 12.319,-115.662c12.95,-29.225 40.22,-53.795 48.018,-61.278c21.209,-20.356 70.283,-43.705 96.957,-46.876c21.265,-2.528 45.775,-3.184 67.869,3.99c13.247,4.302 31.964,14.423 45.037,26.668c10.73,10.051 22.208,28.818 31.387,48.552c4.797,10.312 12.194,29.123 15.585,46.167c1.601,8.055 9.875,47.707 10.549,73.281c0.273,10.394 46.714,2.482 85.25,1.462c24.635,-0.653 51.536,-5.41 72.474,-0.469c53.08,12.525 23.149,45.74 -30.812,70.572c-37.412,17.216 -55.947,23.328 -69.277,27.927c-6.853,2.364 -30.165,9.376 -37.588,11.238c-11.197,2.81 -18.394,-5.694 -12.876,-12.334c4.191,-5.042 13.072,-4.297 28.9,-8.673c11.185,-3.092 24.664,-8.592 31.166,-11.481c10.908,-4.848 21.303,-8.679 28.643,-12.125c18.683,-8.772 30.619,-16.479 50.38,-27.816c12.998,-7.458 6.923,-9.357 6.531,-9.565c-3.815,-2.023 -25.002,-1.479 -44.748,-1.237c-20.844,0.255 -70.083,6.446 -94.12,7.569c-11.961,0.559 -9.715,-1.417 -11.991,11.59c-1.099,6.276 -6.728,32.452 -12.427,62.505c-4.076,21.495 -11.669,46.649 -14.419,58.459c-3.03,13.015 -6.984,24.27 -2.634,27.56c4.35,3.29 17.703,0.789 37.795,-1.058c19.809,-1.82 42.416,-7.829 62.591,-8.704c43.262,-1.875 36.724,25.884 11.129,28.307c-4.213,0.399 -92.07,10.404 -100.39,10.948c-22.755,1.487 -22.056,1.706 -26.827,10.853c-15.264,29.263 -18.949,41.892 -19.776,43.519c-9.842,19.37 -61.216,139.713 -67.188,149.769c-8.211,13.826 1.434,22.681 -6.452,30.409c-5.127,5.024 -16.939,4.748 -22.171,0.813c-6.328,-4.758 -6.535,-15.919 -1.095,-35.025Zm92.243,-560.205c-11.794,-12.618 -21.926,-24.099 -34.828,-30.172c-60.961,-28.693 -132.65,12.214 -172.158,62.766c-20.185,25.827 -27.727,54.78 -30.209,77.243c-1.954,17.68 -3.195,34.951 7.91,40.329c12.063,5.841 40.6,7.476 73.256,7.986c79.126,1.236 180.782,-10.392 180.782,-10.392c20.053,0.048 11.858,-30.838 7.742,-55.589c-3.305,-19.871 -7.417,-41.229 -14.923,-59.586c-5.683,-13.897 -8.017,-22.364 -17.572,-32.585Z" style="fill:#fff;"/><path d="M737.493,368.156c0.156,0.11 0.591,0.406 0.938,0.554c1.673,0.708 4.095,1.081 7.088,1.299c16.101,1.169 46.805,-2.928 73.655,-3.639c24.937,-0.66 52.17,-5.378 73.366,-0.377c17.551,4.141 26.565,10.833 29.402,18.214c2.792,7.262 0.117,15.768 -7.487,24.469c-10.05,11.501 -28.867,23.765 -52.071,34.443c-37.585,17.295 -56.205,23.435 -69.597,28.055c-6.906,2.382 -30.396,9.448 -37.877,11.324c-5.586,1.402 -10.36,0.421 -13.654,-1.641c-2.858,-1.79 -4.677,-4.413 -5.251,-7.259c-0.586,-2.901 0.068,-6.107 2.504,-9.038c2.1,-2.527 5.065,-4.034 9.227,-5.116c4.97,-1.291 11.949,-2.068 21.423,-4.688c11.011,-3.044 24.279,-8.463 30.679,-11.307c10.883,-4.837 21.255,-8.657 28.578,-12.095c18.591,-8.728 30.464,-16.403 50.127,-27.684c2.428,-1.393 4.272,-2.859 5.387,-3.838c-1.16,-0.209 -2.857,-0.311 -4.945,-0.434c-8.722,-0.515 -23.153,-0.195 -36.883,-0.026c-20.818,0.255 -69.994,6.443 -94,7.565c-3.378,0.158 -6.286,0.295 -7.3,0.343c-0.095,0.356 -0.226,0.885 -0.306,1.345c-0.285,1.639 -0.571,3.9 -1.118,7.024c-1.099,6.28 -6.732,32.477 -12.435,62.553c-4.086,21.546 -11.692,46.761 -14.449,58.6c-1.776,7.632 -3.904,14.639 -4.383,19.723c-0.103,1.094 -0.128,2.078 -0.015,2.93c0.075,0.564 0.11,1.065 0.473,1.34c0.493,0.373 1.219,0.528 2.11,0.667c1.397,0.219 3.099,0.265 5.088,0.21c6.662,-0.186 16.216,-1.527 28.178,-2.626c19.861,-1.825 42.53,-7.839 62.758,-8.715c14.036,-0.609 23.187,1.871 28.426,5.427c4.281,2.905 6.277,6.594 6.582,10.31c0.301,3.678 -1.088,7.513 -4.078,10.84c-3.882,4.319 -10.602,7.851 -19.322,8.677c-4.217,0.399 -92.162,10.41 -100.491,10.955c-6.7,0.438 -11.329,0.758 -14.653,1.243c-2.617,0.381 -4.243,0.77 -5.408,1.613c-1.65,1.194 -2.339,3.129 -3.905,6.133c-15.252,29.24 -18.933,41.86 -19.759,43.486c-9.856,19.396 -61.318,139.899 -67.298,149.969c-4.446,7.487 -2.914,13.385 -2.656,18.391c0.242,4.696 -0.347,8.802 -4.353,12.728c-3.13,3.067 -8.243,4.679 -13.429,4.761c-5.08,0.08 -10.144,-1.299 -13.273,-3.652c-3.197,-2.404 -5.276,-6.037 -6.038,-11.153c-0.954,-6.413 0.241,-15.506 3.684,-27.603l0.002,-0.007c2.792,-9.866 26.161,-62.386 38.442,-92.204c22.894,-55.583 34.787,-76.591 43.317,-97.818c0.594,-1.479 1.138,-2.7 1.534,-3.719c0.046,-0.12 0.093,-0.251 0.138,-0.382c-1.884,-0.545 -5.143,-0.826 -10.386,-1.336c-4.182,-0.407 -9.519,-0.898 -16.275,-1.621c-14.749,-1.577 -22.172,-3.979 -31.462,-11.271c-4.276,-3.281 -7.4,-7.832 -8.921,-12.983c-0.263,-0.756 -0.502,-1.569 -0.749,-2.417c-4.548,-15.609 2.246,-32.295 16.404,-40.29l3.726,-2.104c3.455,-1.951 7.508,-2.562 11.385,-1.715c0.001,0.001 0.003,0.001 0.004,0.001c4.725,1.032 8.615,4.371 10.35,8.885c1.736,4.514 1.084,9.598 -1.733,13.528l-0.069,0.097l-0.076,0.091c-2.392,2.899 -5.294,6.406 -8.865,10.587c-0.093,0.109 -0.195,0.264 -0.27,0.385c0.335,0.292 1.228,1.04 1.997,1.433c5.018,2.563 13.81,3.911 18.232,4.43c10.868,1.276 17.968,2.44 22.792,2.787c1.665,0.12 3.016,0.145 4.136,0.002c0.977,-0.124 1.69,-0.36 2.222,-0.954c0.703,-0.785 1.175,-1.923 1.715,-3.427c1.082,-3.017 2.169,-7.234 4.03,-13.005c4.723,-14.649 8.171,-26.277 12.991,-44.162c2.609,-9.68 8.291,-34.83 10.244,-44.888c2.314,-11.921 3.157,-21.67 4.863,-36.454c0.342,-2.958 0.638,-5.357 0.603,-7.28c-0.02,-1.053 -0.024,-1.894 -0.529,-2.471c-0.285,-0.324 -0.723,-0.505 -1.278,-0.679c-1.052,-0.329 -2.398,-0.502 -4.096,-0.589c-6.774,-0.345 -18.281,0.808 -37.471,2.465c-35.364,3.055 -83.239,6.462 -119.307,7.897c-10.694,0.426 -54.565,-0.339 -83.571,-2.555c-12.98,-0.991 -23.087,-2.403 -26.417,-3.97c-10.962,-5.16 -17.876,-8.365 -25.137,-21.511c-5.367,-9.715 -7.642,-23.917 -7.04,-40.329c0.877,-23.89 7.762,-52.565 19.222,-78.428c13.174,-29.73 40.859,-54.767 48.791,-62.38c21.645,-20.774 71.736,-44.585 98.958,-47.821c21.732,-2.584 46.776,-3.196 69.356,4.136c13.63,4.426 32.89,14.838 46.342,27.439c10.976,10.28 22.775,29.438 32.164,49.624c4.878,10.488 12.395,29.622 15.842,46.957c1.612,8.104 9.905,47.944 10.611,73.726Zm-163.409,425.247c-5.44,19.106 -5.233,30.267 1.095,35.025c5.232,3.935 17.044,4.211 22.171,-0.813c7.886,-7.728 -1.759,-16.583 6.452,-30.409c5.972,-10.056 57.346,-130.399 67.188,-149.769c0.827,-1.627 4.512,-14.256 19.776,-43.519c4.771,-9.147 4.072,-9.366 26.827,-10.853c8.32,-0.544 96.177,-10.549 100.39,-10.948c25.595,-2.423 32.133,-30.182 -11.129,-28.307c-20.175,0.875 -42.782,6.884 -62.591,8.704c-20.092,1.847 -33.445,4.348 -37.795,1.058c-4.35,-3.29 -0.396,-14.545 2.634,-27.56c2.75,-11.81 10.343,-36.964 14.419,-58.459c5.699,-30.053 11.328,-56.229 12.427,-62.505c2.276,-13.007 0.03,-11.031 11.991,-11.59c24.037,-1.123 73.276,-7.314 94.12,-7.569c19.746,-0.242 40.933,-0.786 44.748,1.237c0.392,0.208 6.467,2.107 -6.531,9.565c-19.761,11.337 -31.697,19.044 -50.38,27.816c-7.34,3.446 -17.735,7.277 -28.643,12.125c-6.502,2.889 -19.981,8.389 -31.166,11.481c-15.828,4.376 -24.709,3.631 -28.9,8.673c-5.518,6.64 1.679,15.144 12.876,12.334c7.423,-1.862 30.735,-8.874 37.588,-11.238c13.33,-4.599 31.865,-10.711 69.277,-27.927c53.961,-24.832 83.892,-58.047 30.812,-70.572c-20.938,-4.941 -47.839,-0.184 -72.474,0.469c-38.536,1.02 -84.977,8.932 -85.25,-1.462c-0.674,-25.574 -8.948,-65.226 -10.549,-73.281c-3.391,-17.044 -10.788,-35.855 -15.585,-46.167c-9.179,-19.734 -20.657,-38.501 -31.387,-48.552c-13.073,-12.245 -31.79,-22.366 -45.037,-26.668c-22.094,-7.174 -46.604,-6.518 -67.869,-3.99c-26.674,3.171 -75.748,26.52 -96.957,46.876c-7.798,7.483 -35.068,32.053 -48.018,61.278c-18.789,42.402 -25.126,92.476 -12.319,115.662c6.792,12.295 13.32,15.218 23.573,20.044c10.578,4.979 93.162,6.801 108.365,6.196c36.02,-1.433 83.83,-4.836 119.147,-7.886c48.583,-4.197 48.548,-5.055 46.53,12.423c-1.719,14.891 -2.573,24.711 -4.904,36.717c-1.963,10.113 -7.677,35.399 -10.3,45.132c-4.838,17.951 -8.299,29.62 -13.039,44.324c-7.818,24.248 -2.143,21.269 -38.616,16.987c-7.854,-0.922 -28.594,-4.483 -22.201,-11.969c3.555,-4.163 6.445,-7.655 8.827,-10.541c2.135,-2.979 2.628,-6.831 1.313,-10.251c-1.315,-3.42 -4.261,-5.949 -7.842,-6.731l-0.004,-0.001c-3.041,-0.664 -6.22,-0.186 -8.93,1.344l-3.725,2.104c-12.751,7.2 -18.869,22.227 -14.773,36.284c0.237,0.812 0.463,1.59 0.717,2.311c1.31,4.494 4.018,8.453 7.732,11.303c8.775,6.891 15.799,9.081 29.709,10.568c33.713,3.604 32.02,1.443 27.85,11.82c-8.532,21.233 -20.427,42.247 -43.327,97.845c-12.236,29.706 -35.542,82.023 -38.313,91.832Zm92.243,-560.205c9.555,10.221 11.889,18.688 17.572,32.585c7.506,18.357 11.618,39.715 14.923,59.586c4.116,24.751 12.311,55.637 -7.742,55.589c0,0 -101.656,11.628 -180.782,10.392c-32.656,-0.51 -61.193,-2.145 -73.256,-7.986c-11.105,-5.378 -9.864,-22.649 -7.91,-40.329c2.482,-22.463 10.024,-51.416 30.209,-77.243c39.508,-50.552 111.197,-91.459 172.158,-62.766c12.902,6.073 23.034,17.554 34.828,30.172Zm-2.544,2.378c-11.46,-12.259 -21.231,-23.498 -33.768,-29.399c-59.524,-28.018 -129.352,12.398 -167.93,61.76c-19.722,25.234 -27.067,53.533 -29.492,75.48c-0.946,8.562 -1.751,17.023 -0.944,23.995c0.679,5.859 2.392,10.629 6.911,12.817c11.819,5.723 39.798,7.139 71.793,7.639c78.928,1.233 180.331,-10.37 180.331,-10.37l0.202,-0.023l0.202,0.001c2.311,0.005 4.123,-0.477 5.488,-1.502c2.177,-1.637 3.146,-4.467 3.629,-7.917c1.538,-10.989 -2.408,-27.625 -4.819,-42.117c-3.263,-19.619 -7.299,-40.714 -14.711,-58.839c-5.49,-13.426 -7.661,-21.65 -16.892,-31.525Z" style="fill:#fff9f9;"/></g></g></svg>